<svg version="1.1" id="Layer_1" xmlns="http://www.w3.org/2000/svg" xmlns:xlink="http://www.w3.org/1999/xlink" x="0px" y="0px"
	 width="100%" viewBox="0 0 510 112" enable-background="new 0 0 510 112" xml:space="preserve">
<path fill="#FDFEFD" opacity="1.000000" stroke="none" 
	d="
M1.000000,47.000000 
	C1.000000,31.677795 1.000000,16.355589 1.000002,1.040723 
	C171.000000,1.048061 341.000000,1.048061 511.000000,1.048061 
	C511.000000,16.418308 511.000000,31.740496 510.567200,47.574577 
	C505.673035,47.240799 502.249054,48.557575 499.362061,52.268757 
	C496.500977,55.946598 493.039795,59.157608 488.927216,63.550289 
	C488.927216,53.200539 488.927216,44.318737 488.927216,34.678535 
	C486.623047,35.201107 484.859772,35.601009 482.935547,36.446754 
	C482.686798,47.595638 482.599030,58.298679 482.308105,69.340210 
	C482.004272,72.453087 481.903534,75.227470 481.469910,77.955597 
	C476.726410,75.514626 476.046082,75.871109 474.558716,81.356461 
	C481.365204,81.612640 488.586365,90.692719 494.879852,80.302910 
	C496.615936,80.878334 498.307983,81.439163 500.000488,82.388306 
	C500.532867,84.286217 501.158295,85.770920 501.568268,87.312920 
	C501.924957,88.654480 502.632843,90.320137 502.163269,91.396675 
	C498.938782,98.788963 498.761292,105.949989 503.000000,113.000000 
	C335.666656,113.000000 168.333328,113.000000 1.000000,113.000000 
	C1.000000,99.248627 1.000000,85.592972 1.243981,71.469650 
	C1.487963,71.001984 1.975929,71.001846 2.154705,71.256516 
	C2.888278,72.351540 3.443074,73.191887 4.080094,74.330742 
	C5.274765,75.477768 6.387215,76.326302 7.711162,77.426437 
	C8.951771,77.833435 9.980882,77.988815 11.439352,78.333038 
	C18.181347,78.659538 24.493980,78.797195 30.758587,79.116119 
	C30.718800,79.561638 30.817419,79.786201 30.937546,80.437164 
	C31.216860,87.798294 31.565048,94.693344 31.852680,101.692612 
	C31.792122,101.796837 31.954674,101.974861 31.977625,102.264221 
	C32.284428,102.788910 32.568279,103.024246 32.861229,103.183640 
	C32.870331,103.107689 32.720936,103.140610 32.789085,103.425934 
	C33.170525,103.918579 33.483818,104.125900 33.811623,104.250282 
	C33.826138,104.167343 33.663795,104.212097 33.751511,104.492569 
	C34.176514,104.948341 34.513805,105.123627 34.865791,105.217125 
	C34.880482,105.135338 34.716301,105.161171 34.814972,105.434105 
	C35.258041,105.860001 35.602444,106.012962 35.895687,106.140091 
	C35.844528,106.114250 35.806408,106.222351 35.978882,106.495491 
	C36.767437,106.891342 37.383522,107.014061 38.135468,107.217247 
	C38.271328,107.297714 38.578266,107.223366 38.895592,107.447098 
	C40.878475,107.153084 42.544033,106.635345 44.134781,106.073837 
	C44.059963,106.030075 44.178066,106.156975 44.444347,105.914658 
	C45.445541,103.265869 46.180450,100.859406 47.054108,97.998619 
	C44.548206,97.998619 42.769753,97.998619 40.870003,97.906883 
	C40.748703,97.815147 40.463825,97.921722 40.415291,97.459290 
	C40.285229,87.980118 40.203705,78.963364 39.926872,69.543671 
	C30.497383,69.063637 21.263199,68.986557 12.030311,68.948563 
	C12.031606,68.987656 12.090672,68.936363 11.993031,68.515533 
	C11.700897,65.363289 11.506407,62.631882 11.378451,59.522690 
	C11.400651,58.126034 11.356316,57.107162 11.478018,55.771156 
	C11.558956,54.274349 11.473857,53.094685 11.494516,51.542160 
	C11.723469,50.405735 11.846662,49.642166 12.440266,48.897690 
	C18.732504,48.917236 24.556959,49.022484 30.375113,48.876579 
	C33.569038,48.796486 36.752342,48.293045 40.085655,47.532265 
	C40.326431,37.078022 40.421989,27.071993 40.647873,17.130682 
	C40.778194,17.195398 41.001514,17.008797 41.467888,17.050280 
	C47.817669,17.091763 53.701077,17.091763 60.095451,17.091763 
	C60.095451,28.126612 60.095451,38.318584 60.095451,48.463623 
	C69.382401,48.463623 78.125854,48.463623 87.267593,48.725044 
	C88.037903,53.547226 88.409935,58.107990 88.783035,62.681969 
	C91.934143,62.681969 94.828712,62.681969 98.095299,62.681969 
	C98.095299,58.349937 98.109375,54.382236 98.092285,50.414669 
	C98.059731,42.856133 94.361061,39.092121 86.822090,39.023457 
	C81.212677,38.972363 75.602432,39.013390 69.518364,39.013390 
	C69.518364,32.130253 69.583199,25.843121 69.501724,19.557886 
	C69.402916,11.935360 66.232117,7.729352 59.698002,7.355696 
	C53.399147,6.995492 47.042976,7.010853 40.746571,7.408617 
	C34.292183,7.816362 30.924646,11.766503 30.862228,18.238323 
	C30.796453,25.058079 30.874121,31.879217 30.436153,38.789177 
	C24.885687,38.912910 19.775812,38.747978 14.695755,39.063347 
	C12.049891,39.227600 9.456603,40.238766 6.885844,40.891914 
	C6.932122,40.916451 6.905254,40.815197 6.629974,40.872364 
	C6.140625,41.219501 5.926556,41.509468 5.776029,41.814362 
	C5.839571,41.829285 5.797866,41.705585 5.530368,41.788376 
	C5.076280,42.181927 4.889690,42.492691 4.766175,42.821247 
	C4.829252,42.839043 4.792896,42.713108 4.531390,42.814419 
	C4.117558,43.248051 3.965233,43.580372 3.860896,43.917862 
	C3.908885,43.923027 3.866247,43.836422 3.591200,43.991020 
	C3.145141,44.738705 2.974128,45.331787 2.852243,45.920586 
	C2.901371,45.916302 2.855523,45.828979 2.643896,45.970917 
	C2.252609,46.401123 2.072949,46.689388 1.669809,46.976967 
	C1.446330,46.976276 1.000000,47.000000 1.000000,47.000000 
M422.667114,48.108334 
	C422.392914,48.205368 422.184784,48.380768 421.446014,49.006264 
	C419.251709,50.994553 417.057434,52.982841 414.448730,55.277008 
	C414.326935,55.591202 414.205170,55.905396 414.047791,56.659061 
	C414.047791,56.659061 413.807770,57.028908 413.373505,57.401150 
	C413.255676,57.949635 413.137848,58.498119 413.023315,59.799290 
	C412.916107,60.541542 412.808899,61.283794 412.444275,62.196743 
	C412.254944,62.500267 412.317230,62.754585 412.765686,63.656757 
	C412.716492,64.125015 412.667328,64.593277 412.291901,65.391190 
	C412.442627,65.916451 412.593353,66.441711 412.924103,67.617874 
	C412.994354,68.288940 413.064606,68.959999 413.151001,70.152046 
	C413.351624,70.424950 413.552277,70.697853 413.994904,71.391953 
	C413.994904,71.391953 414.045074,71.875137 414.145569,72.329086 
	C414.277649,72.626549 414.492035,72.842178 415.067627,73.257957 
	C415.067627,73.257957 415.120850,73.650970 415.220978,74.224838 
	C415.503754,74.475349 415.786499,74.725861 416.663513,75.268364 
	C418.455505,76.621735 420.247498,77.975105 422.354065,79.677322 
	C422.623535,79.867714 422.922150,79.943611 423.681488,79.916374 
	C423.681488,79.916374 424.029053,80.172531 424.419922,80.644356 
	C425.623108,80.733658 426.826263,80.822952 428.850739,80.757378 
	C434.328400,80.600060 439.557098,79.861877 443.369385,74.561752 
	C441.840057,73.291893 440.497925,72.177498 438.650452,71.207344 
	C438.434479,71.474419 438.218536,71.741501 437.789459,72.499390 
	C437.314362,72.710419 436.839264,72.921440 435.827637,73.172722 
	C435.558289,73.395866 435.288940,73.619003 434.657776,74.094383 
	C434.657776,74.094383 434.216766,74.090996 433.625580,74.031044 
	C433.100616,74.248154 432.575653,74.465263 431.241791,74.868858 
	C430.145477,74.789505 429.049133,74.710152 427.616119,74.296501 
	C427.333038,74.121071 427.027283,74.061058 426.299042,74.128708 
	C426.299042,74.128708 425.983124,73.883286 425.658569,73.434036 
	C425.139618,73.272217 424.620697,73.110397 424.034027,72.983864 
	C424.034027,72.983864 424.030731,72.907600 423.769257,72.486366 
	C423.538422,72.227837 423.251160,72.076096 422.447021,71.899078 
	C422.153198,71.715256 421.992218,71.450623 421.814270,70.626053 
	C421.566101,70.409569 421.317963,70.193085 421.001251,69.982231 
	C421.001251,69.982231 421.038300,69.924301 420.999481,69.362358 
	C420.702911,68.913300 420.406342,68.464241 419.831451,67.585640 
	C419.872467,67.420036 419.913513,67.254433 420.022430,66.860374 
	C420.022430,66.860374 420.039734,66.622696 420.897308,66.242752 
	C428.278351,66.285477 435.659363,66.328194 443.228546,66.607040 
	C443.228546,66.607040 443.647675,66.653168 443.647675,66.653168 
	C443.647675,66.653168 443.963898,66.350182 444.622345,65.925171 
	C444.862793,64.927986 445.103210,63.930801 445.768341,62.317226 
	C445.516479,60.112442 447.644989,57.169983 443.310455,55.654087 
	C440.174500,49.310905 434.519196,47.466492 427.772675,46.637718 
	C427.173492,46.930237 426.574310,47.222755 425.341217,47.771374 
	C424.887421,47.778355 424.433655,47.785332 423.739044,47.518177 
	C423.505157,47.704414 423.271271,47.890652 423.015656,48.003624 
	C423.015656,48.003624 423.078644,48.046902 422.667114,48.108334 
M169.428055,79.526802 
	C169.464844,79.395744 169.563904,79.241882 169.525940,79.138184 
	C169.436905,78.895042 169.282257,78.675919 169.472763,77.643143 
	C169.462692,72.434616 169.452621,67.226097 170.160126,61.457726 
	C176.750397,61.457726 183.340668,61.457726 190.398392,61.457726 
	C190.398392,67.721443 190.398392,73.659828 190.398392,79.868797 
	C193.110321,79.868797 195.345688,79.868797 197.883148,79.868797 
	C197.883148,65.273399 197.883148,50.895607 197.883148,36.300507 
	C195.348053,36.300507 193.113922,36.300507 190.195679,36.300507 
	C190.195679,42.267120 190.195679,47.973949 190.195679,54.469978 
	C182.779404,53.942406 176.081741,53.465950 169.641647,52.121189 
	C169.540359,49.416615 169.439072,46.712036 169.613174,43.227684 
	C169.421799,41.013821 169.230423,38.799957 168.578293,36.189190 
	C168.376526,36.208740 168.174774,36.228287 167.200592,36.070160 
	C165.549164,36.369213 163.897736,36.668266 161.986267,37.880260 
	C161.986267,51.883018 161.986267,65.885773 161.986267,80.344551 
	C164.851913,80.057190 166.950562,79.846733 169.428055,79.526802 
M327.037903,34.267532 
	C329.162781,33.078766 331.287659,31.889996 333.354004,30.733974 
	C329.392487,27.411589 323.856659,28.839617 320.813324,34.621296 
	C319.065704,37.941353 317.406464,38.214806 314.145447,36.740833 
	C311.565521,35.574703 308.401062,35.003395 305.595398,35.258625 
	C303.396729,35.458630 300.359100,36.905830 303.330109,41.070110 
	C303.203186,43.047707 303.076233,45.025299 302.554565,47.163532 
	C302.303436,47.318691 302.123657,47.533554 301.272675,47.985023 
	C300.514679,47.937237 299.756683,47.889446 298.999298,47.015675 
	C299.233551,44.485535 299.467834,41.955395 299.667572,39.798439 
	C298.771637,38.532887 297.438721,37.413406 297.107117,36.050320 
	C295.621155,29.942144 288.348694,26.917582 282.949432,30.514080 
	C281.415100,31.536116 279.525513,33.098186 279.219727,34.686203 
	C278.366119,39.119041 278.326202,43.703648 277.777435,48.205471 
	C277.696777,48.867264 276.595581,49.404655 275.705170,49.240955 
	C272.541687,46.465244 269.704224,47.568096 267.433014,49.578011 
	C263.725555,48.698689 260.377136,47.904522 256.776245,46.653751 
	C256.160065,46.911636 255.543884,47.169521 254.223740,47.716030 
	C248.814789,48.818066 245.304367,52.230297 242.447769,57.412403 
	C242.383148,57.812050 242.318527,58.211697 242.234543,59.439663 
	C242.236084,62.762436 242.237625,66.085213 242.205658,70.020233 
	C242.433075,70.343300 242.660492,70.666359 243.275620,71.555832 
	C249.217194,81.329575 256.641815,83.167870 267.376831,77.542969 
	C269.630798,81.619995 272.714386,80.735741 276.647125,79.105675 
	C279.808563,82.039452 276.141357,82.701721 274.948395,82.731850 
	C267.084137,82.930412 259.210236,82.741135 251.339386,82.699051 
	C250.293533,82.693459 249.036865,82.477173 248.269043,82.969109 
	C247.681473,83.345558 247.227081,85.095642 247.574524,85.506401 
	C248.171829,86.212547 249.424820,86.400429 250.430618,86.716682 
	C252.196426,87.271919 254.006699,87.693207 255.751801,88.303635 
	C256.642120,88.615059 257.531097,89.738274 258.250244,89.601067 
	C263.300537,88.637466 268.268982,87.203491 273.339905,86.404205 
	C276.599731,85.890396 280.103271,85.638153 283.292267,86.283386 
	C287.314972,87.097313 293.319489,85.635155 296.385010,82.680420 
	C297.198792,81.896057 300.275696,81.911324 300.837067,82.662636 
	C304.728027,87.870049 305.904388,88.258224 311.478149,85.009621 
	C311.359619,83.493477 311.244720,82.024178 311.946472,80.557381 
	C313.297638,80.702248 314.648834,80.847115 315.989258,81.746681 
	C315.866180,83.086052 315.743073,84.425415 315.709259,84.793335 
	C322.118286,85.704773 327.855499,86.520668 334.701538,87.494247 
	C332.001404,84.154144 330.461731,82.249542 329.693634,80.160828 
	C330.479614,80.220680 331.265625,80.280533 332.362213,80.680435 
	C332.891418,80.562286 333.420593,80.444130 334.675812,79.783340 
	C335.000122,73.810112 335.324432,67.836884 335.846497,61.581654 
	C335.951385,61.368450 335.990173,61.143818 335.937164,60.213669 
	C336.932037,58.799721 337.926910,57.385769 339.349243,55.871353 
	C339.629852,55.748184 339.837250,55.548817 340.620178,54.881313 
	C343.892548,53.509193 346.771820,53.880863 349.154114,57.270256 
	C349.275085,57.590839 349.489410,57.826527 350.058899,58.367752 
	C350.058899,58.367752 350.067291,58.837769 350.006836,59.505123 
	C350.244080,60.320515 350.481323,61.135910 350.927460,62.871990 
	C350.968719,68.549629 351.009949,74.227264 350.753479,80.568642 
	C349.807953,81.380577 348.787445,82.121735 347.936737,83.023178 
	C346.973175,84.044144 346.161957,85.208817 345.284485,86.311005 
	C346.808685,86.372459 348.354279,86.613213 349.849854,86.434669 
	C350.912170,86.307854 351.968323,85.133392 352.921967,85.254601 
	C358.660095,85.983849 364.343933,87.324448 370.095154,87.693771 
	C373.271362,87.897728 376.543518,86.607300 379.772430,85.990540 
	C379.678497,85.399292 379.584564,84.808044 379.490631,84.216789 
	C375.940369,83.797211 372.341156,83.602409 368.864288,82.845650 
	C367.503693,82.549500 366.417603,80.992111 365.206512,80.009148 
	C366.074158,79.339645 366.941803,78.670151 368.003387,78.656586 
	C368.346130,79.211525 368.688843,79.766457 369.199432,80.573822 
	C369.199432,80.573822 369.611847,80.666977 369.611847,80.666977 
	C369.611847,80.666977 369.954407,80.394188 370.882599,80.226410 
	C375.176849,80.206703 379.474304,80.071098 383.764740,80.189766 
	C395.105133,80.503426 403.164490,75.872231 407.612976,64.544159 
	C407.663330,64.149872 407.713715,63.755589 407.643768,62.631355 
	C407.820068,61.414482 407.996338,60.197609 408.560883,58.675285 
	C408.436188,58.123829 408.311462,57.572372 408.028168,56.248005 
	C407.641602,54.181564 407.255035,52.115128 407.363647,49.728516 
	C406.906616,49.153370 406.449615,48.578224 405.454376,47.606220 
	C402.372925,41.664585 397.301788,38.320484 390.904114,36.030537 
	C390.262939,36.039482 389.621796,36.048428 388.047943,36.130852 
	C381.487183,36.130852 374.926422,36.130852 367.803589,36.130852 
	C367.803589,48.516308 367.803589,60.257732 367.005554,71.959122 
	C366.381165,71.536133 365.217621,71.116470 365.214996,70.689644 
	C365.185669,65.924347 365.335510,61.157940 365.502228,56.441040 
	C365.502228,56.441040 365.445679,56.602978 365.203918,55.851727 
	C362.498718,52.614849 359.940216,49.235859 357.013275,46.213734 
	C355.902557,45.066895 353.727295,43.719044 352.429504,47.032925 
	C351.965881,47.311504 351.502258,47.590080 350.339111,47.860340 
	C349.901398,47.715771 349.463684,47.571201 348.883759,46.930626 
	C348.249847,46.971424 347.615936,47.012222 346.204285,47.220505 
	C344.125885,47.449661 342.047516,47.678822 339.561768,47.420799 
	C338.154694,46.940464 336.747620,46.460133 335.156403,45.076633 
	C335.156403,41.833996 335.156403,38.591358 335.156403,35.150059 
	C332.331207,35.150059 330.221893,35.150059 327.576813,35.039551 
	C327.395050,35.050686 327.213287,35.061817 327.037903,34.267532 
M458.193756,65.815575 
	C458.809906,65.984077 459.426086,66.152588 460.465363,66.687599 
	C460.833221,66.727150 461.201080,66.766701 462.276947,66.734421 
	C463.199554,66.941643 464.122131,67.148857 465.371765,67.694000 
	C465.648010,67.874512 465.949493,67.941139 466.822021,67.925095 
	C467.231384,68.243408 467.640778,68.561714 468.011841,69.751961 
	C468.042419,70.916878 468.072998,72.081802 467.908569,73.681473 
	C467.677582,73.937309 467.390503,74.049171 466.658600,74.087799 
	C466.399750,74.179939 466.198517,74.343140 465.197998,74.855042 
	C463.112610,74.764252 461.027191,74.673462 458.608795,74.269089 
	C458.332520,74.106705 458.036530,74.053238 457.099335,74.106522 
	C456.718658,73.951721 456.338013,73.796928 455.699280,73.318001 
	C455.479248,73.132271 455.225372,73.033524 454.256287,72.936920 
	C452.835815,73.291107 451.415314,73.645294 449.493652,74.391670 
	C449.392517,74.796806 449.291382,75.201950 449.353241,76.196945 
	C451.572754,77.520058 453.792236,78.843170 456.165100,80.458221 
	C456.165100,80.458221 456.594238,80.599838 456.594238,80.599838 
	C456.594238,80.599838 456.967957,80.310783 457.756439,80.221291 
	C461.180511,80.240707 464.604553,80.260132 468.259430,80.533798 
	C468.504822,80.379486 468.750244,80.225182 469.519836,79.619408 
	C473.228607,77.716240 476.243927,75.251457 475.940948,70.576141 
	C475.661224,66.259682 472.832092,63.743858 469.156738,62.205734 
	C467.405487,61.472828 465.332397,61.547989 463.494720,60.971390 
	C461.676147,60.400784 459.841278,59.663479 458.271790,58.613323 
	C457.529877,58.116917 456.866180,56.542110 457.123779,55.778698 
	C457.391541,54.984951 458.815155,54.092575 459.730927,54.095127 
	C462.812714,54.103706 465.894135,54.671951 468.974335,54.660603 
	C470.600708,54.654617 472.224274,53.891335 473.849091,53.469975 
	C473.218689,51.869545 472.588287,50.269115 471.640350,48.319916 
	C471.368164,48.130554 471.067566,48.056812 469.949219,48.019978 
	C465.602295,48.001938 461.255341,47.983894 456.360504,47.993118 
	C455.916168,48.271549 455.471863,48.549980 454.566040,49.300926 
	C453.334259,50.540077 452.102478,51.779228 450.426086,53.392704 
	C450.338318,53.764442 450.250519,54.136177 450.199677,55.032562 
	C450.085846,55.362732 449.971985,55.692898 449.407196,56.413620 
	C449.582733,57.271992 449.758240,58.130360 450.332336,59.538837 
	C452.230591,61.422703 454.128876,63.306568 456.424438,65.614105 
	C456.800720,65.683868 457.177002,65.753632 458.193756,65.815575 
M215.955780,66.212723 
	C221.293472,66.260674 226.631165,66.308624 232.105988,66.982079 
	C234.114166,69.044670 235.968079,70.139267 237.517258,65.584648 
	C238.262039,56.361759 235.078018,51.379742 225.918274,47.077480 
	C225.265579,47.093502 224.612900,47.109524 223.149323,47.230854 
	C221.506989,47.403671 219.842209,47.459457 218.226181,47.769421 
	C210.963440,49.162426 205.916367,54.454403 205.108963,61.417740 
	C204.172760,69.491791 207.873306,76.208244 214.879333,79.150848 
	C222.363358,82.294212 230.552673,80.690323 235.460800,74.816811 
	C234.269226,73.471909 233.032211,72.075714 232.022858,70.936462 
	C229.761414,71.846741 228.102341,72.514549 225.914062,73.141060 
	C225.619598,73.318115 225.325134,73.495163 224.229446,73.857246 
	C222.146072,73.467407 220.062714,73.077568 217.731339,72.338936 
	C217.512344,72.134499 217.253113,72.027390 216.402374,71.884209 
	C215.895126,71.343842 215.387878,70.803474 214.956757,69.486687 
	C214.984421,68.449692 215.012070,67.412704 215.955780,66.212723 
M127.361305,38.335583 
	C134.025925,53.243141 133.896561,67.925728 124.432068,81.494873 
	C115.184509,94.752998 101.441254,97.375023 85.916229,95.627937 
	C86.697533,92.134331 87.443230,88.799919 88.330368,84.833076 
	C84.417221,84.833076 80.946968,84.715424 77.494698,84.912689 
	C76.588997,84.964447 75.205124,85.817001 74.947403,86.600143 
	C72.731255,93.334244 70.723129,100.136803 68.383354,107.802017 
	C78.699135,107.802017 88.146324,108.204453 97.547607,107.718651 
	C117.424942,106.691513 133.021957,97.832176 141.240875,79.437698 
	C149.853760,60.161530 147.719254,41.097202 134.311539,24.496981 
	C118.174255,4.517279 95.456512,6.752979 74.124878,7.536162 
	C74.957443,16.258148 75.745895,24.517975 76.521255,32.640640 
	C80.635628,32.640640 84.532707,32.640640 89.025940,32.640640 
	C89.025940,28.009892 89.025940,23.772858 89.025940,19.363628 
	C105.756882,18.042021 118.742767,22.981327 127.361305,38.335583 
M54.641811,93.044403 
	C53.201389,97.759171 51.760971,102.473946 50.113358,107.866898 
	C52.738449,107.866898 54.580124,107.628212 56.336605,107.913696 
	C60.791348,108.637741 63.046673,106.897392 63.969158,102.467316 
	C64.813484,98.412598 66.302582,94.491287 67.522858,90.515877 
	C71.136520,78.743378 71.139481,78.747551 83.434151,78.753098 
	C94.037529,78.757881 104.640907,78.754089 114.530098,78.754089 
	C114.530098,75.222893 114.530098,72.264702 114.530098,68.929939 
	C98.817284,68.929939 82.498756,68.775146 66.191788,69.138664 
	C64.293114,69.180984 61.557255,71.733788 60.762894,73.738289 
	C58.379177,79.753387 56.764980,86.073448 54.641811,93.044403 
M477.320374,59.350288 
	C479.554443,54.294891 479.554443,54.294891 475.642944,53.496811 
	C473.271423,63.069313 473.736938,64.573944 480.782898,65.750694 
	C479.459076,63.332066 478.548370,61.668274 477.320374,59.350288 
M465.509583,56.142994 
	C465.207153,56.569332 464.904694,56.995674 464.602264,57.422016 
	C465.049835,57.535603 465.497437,57.649189 465.944977,57.762772 
	C465.998535,57.263794 466.052063,56.764816 465.509583,56.142994 
z"/>
<path fill="#2075AD" opacity="1.000000" stroke="none" 
	d="
M483.096466,36.000912 
	C484.859772,35.601009 486.623047,35.201107 488.927216,34.678535 
	C488.927216,44.318737 488.927216,53.200539 488.927216,63.550289 
	C493.039795,59.157608 496.500977,55.946598 499.362061,52.268757 
	C502.249054,48.557575 505.673035,47.240799 510.567200,48.043236 
	C511.000000,48.000000 511.000000,48.500000 510.674194,48.763657 
	C509.002899,50.392868 507.657410,51.758423 506.027496,53.194798 
	C505.554535,53.591274 505.365967,53.916931 505.157715,54.184425 
	C505.138062,54.126263 505.245544,54.185612 504.971405,54.247326 
	C504.544159,54.631611 504.391052,54.954178 504.176758,55.191185 
	C504.115601,55.105618 504.283447,55.232391 504.003845,55.283653 
	C503.586182,55.664696 503.448120,55.994476 503.175842,56.173325 
	C503.041656,56.022392 503.329346,56.305984 503.042847,56.331234 
	C502.622742,56.687820 502.489166,57.019161 502.243591,57.183697 
	C502.131622,57.016895 502.385376,57.328476 502.071838,57.351013 
	C501.500885,57.907978 501.243530,58.442410 500.846985,59.279556 
	C500.117767,60.722569 499.527740,61.862858 498.785889,63.120102 
	C498.869965,63.375965 499.105774,63.514881 499.350922,63.690109 
	C499.360229,63.726425 499.297485,63.685368 499.323120,63.975388 
	C499.657593,64.473068 499.966400,64.680725 500.473358,65.000061 
	C500.904327,65.333847 501.023193,65.605774 501.038391,66.249725 
	C501.475677,66.971039 501.902679,67.370148 502.278320,67.799728 
	C502.226959,67.830193 502.246948,67.712425 502.291199,68.003548 
	C502.657990,68.489494 502.980499,68.684319 503.562622,69.076080 
	C504.897522,70.794197 505.972839,72.315369 507.122040,74.089478 
	C507.458954,74.564835 507.722015,74.787247 507.992554,75.004837 
	C508.000000,75.000000 507.987885,75.013893 508.014954,75.325638 
	C508.450592,76.046181 508.859131,76.454987 509.210388,76.868034 
	C509.153107,76.872276 509.223083,76.781143 509.095276,77.171082 
	C507.259857,78.110313 505.552246,78.659615 503.851379,79.192497 
	C503.858063,79.176079 503.892212,79.177773 503.830261,78.917175 
	C503.492615,78.444344 503.216888,78.232124 502.971344,78.013985 
	C503.001495,78.008064 502.966675,78.058739 502.940735,77.716148 
	C502.436951,76.964157 501.959137,76.554749 501.317291,76.123055 
	C501.153259,76.100761 500.825897,76.051079 500.804810,75.704895 
	C499.173767,73.274559 497.563782,71.190414 495.944305,69.067009 
	C495.934784,69.027748 495.861725,69.062202 495.721802,68.800690 
	C494.482178,68.696770 493.382446,68.854370 492.039948,69.174835 
	C491.555725,69.641998 491.314270,69.946289 490.868103,70.311630 
	C490.399017,70.546135 490.276764,70.790649 490.225006,71.136581 
	C490.153412,71.166954 490.116547,71.318039 489.802887,71.539856 
	C489.200256,73.958961 488.911316,76.156250 488.555237,78.863785 
	C487.161713,78.863785 485.575836,78.863785 483.992310,78.403671 
	C483.996429,65.696548 484.033691,53.449322 483.959778,41.202763 
	C483.949310,39.467136 483.397644,37.734779 483.096466,36.000912 
z"/>
<path fill="#F3F9F9" opacity="1.000000" stroke="none" 
	d="
M507.048157,73.836533 
	C505.972839,72.315369 504.897522,70.794197 503.464325,68.816513 
	C502.819946,68.144142 502.533447,67.928284 502.246948,67.712425 
	C502.246948,67.712425 502.226959,67.830193 502.216003,67.510742 
	C501.812683,66.770042 501.420380,66.348793 501.028076,65.927536 
	C501.023193,65.605774 500.904327,65.333847 500.399658,64.734085 
	C499.851044,64.132736 499.574249,63.909058 499.297485,63.685371 
	C499.297485,63.685368 499.360229,63.726425 499.307678,63.492027 
	C499.255127,63.257633 498.937683,63.003147 498.937683,63.003147 
	C499.527740,61.862858 500.117767,60.722569 501.108276,59.167046 
	C501.800964,58.277367 502.093170,57.802925 502.385376,57.328476 
	C502.385376,57.328476 502.131622,57.016895 502.480713,57.091980 
	C502.996307,56.880035 503.162811,56.593006 503.329346,56.305981 
	C503.329346,56.305984 503.041656,56.022392 503.419617,56.077785 
	C503.959564,55.832920 504.121521,55.532661 504.283447,55.232395 
	C504.283447,55.232391 504.115601,55.105618 504.426666,55.098812 
	C504.907013,54.789875 505.076263,54.487743 505.245544,54.185612 
	C505.245544,54.185612 505.138062,54.126263 505.422333,54.088306 
	C505.908356,53.741558 506.110138,53.432766 506.311890,53.123978 
	C507.657410,51.758423 509.002899,50.392868 510.674194,49.013657 
	C511.000000,58.354229 511.000000,67.708458 510.737061,77.445168 
	C510.057129,77.478813 509.640106,77.129982 509.223083,76.781143 
	C509.223083,76.781143 509.153107,76.872276 509.155029,76.576263 
	C508.767242,75.858124 508.377563,75.436012 507.987885,75.013893 
	C507.987885,75.013893 508.000000,75.000000 507.935303,74.742836 
	C507.596436,74.269287 507.322296,74.052910 507.048157,73.836533 
z"/>
<path fill="#F9FBFA" opacity="1.000000" stroke="none" 
	d="
M511.000000,80.000000 
	C511.000000,90.166664 510.791718,100.340149 511.123962,110.495941 
	C511.226685,113.635735 509.654388,112.951927 507.500000,112.531616 
	C507.323639,105.318436 507.756287,98.575539 507.873840,91.827156 
	C507.895874,90.562469 506.657776,89.275826 506.000977,87.633430 
	C505.667175,86.178162 505.333588,85.088776 505.000000,83.636047 
	C504.997955,82.304016 504.995941,81.335335 505.414032,80.272873 
	C507.556091,80.119392 509.278046,80.059700 511.000000,80.000000 
z"/>
<path fill="#FEFEFD" opacity="1.000000" stroke="none" 
	d="
M505.000000,83.999390 
	C505.333588,85.088776 505.667175,86.178162 506.000488,88.065880 
	C505.749176,90.797379 505.252167,92.735695 505.292542,94.662758 
	C505.420532,100.777435 505.749023,106.887901 506.000000,113.000000 
	C505.250000,113.000000 504.500000,113.000000 503.375000,113.000000 
	C498.761292,105.949989 498.938782,98.788963 502.163269,91.396675 
	C502.632843,90.320137 501.924957,88.654480 501.568268,87.312920 
	C501.158295,85.770920 500.532867,84.286217 500.343933,82.422318 
	C502.124573,82.711800 503.562286,83.355591 505.000000,83.999390 
z"/>
<path fill="#FDFEFD" opacity="1.000000" stroke="none" 
	d="
M506.250000,113.000000 
	C505.749023,106.887901 505.420532,100.777435 505.292542,94.662758 
	C505.252167,92.735695 505.749176,90.797379 506.000732,88.431763 
	C506.657776,89.275826 507.895874,90.562469 507.873840,91.827156 
	C507.756287,98.575539 507.323639,105.318436 507.000000,112.531616 
	C507.000000,113.000000 506.500000,113.000000 506.250000,113.000000 
z"/>
<path fill="#E0F8FE" opacity="1.000000" stroke="none" 
	d="
M1.975929,71.001846 
	C1.975929,71.001846 1.487963,71.001984 1.243981,71.000992 
	C1.000000,63.312424 1.000000,55.624847 1.000000,47.468636 
	C1.000000,47.000000 1.446330,46.976276 1.714418,47.445656 
	C1.980314,55.610641 1.978122,63.306244 1.975929,71.001846 
z"/>
<path fill="#32779F" opacity="1.000000" stroke="none" 
	d="
M511.000000,79.666672 
	C509.278046,80.059700 507.556091,80.119392 505.157349,80.147415 
	C504.268585,79.813461 504.056610,79.511185 503.844666,79.208908 
	C505.552246,78.659615 507.259857,78.110313 509.095276,77.171082 
	C509.640106,77.129982 510.057129,77.478813 510.737061,77.913826 
	C511.000000,78.444443 511.000000,78.888893 511.000000,79.666672 
z"/>
<path fill="#59AF57" opacity="1.000000" stroke="none" 
	d="
M127.178497,38.009480 
	C118.742767,22.981327 105.756882,18.042021 89.025940,19.363628 
	C89.025940,23.772858 89.025940,28.009892 89.025940,32.640640 
	C84.532707,32.640640 80.635628,32.640640 76.521255,32.640640 
	C75.745895,24.517975 74.957443,16.258148 74.124878,7.536162 
	C95.456512,6.752979 118.174255,4.517279 134.311539,24.496981 
	C147.719254,41.097202 149.853760,60.161530 141.240875,79.437698 
	C133.021957,97.832176 117.424942,106.691513 97.547607,107.718651 
	C88.146324,108.204453 78.699135,107.802017 68.383354,107.802017 
	C70.723129,100.136803 72.731255,93.334244 74.947403,86.600143 
	C75.205124,85.817001 76.588997,84.964447 77.494698,84.912689 
	C80.946968,84.715424 84.417221,84.833076 88.330368,84.833076 
	C87.443230,88.799919 86.697533,92.134331 85.916229,95.627937 
	C101.441254,97.375023 115.184509,94.752998 124.432068,81.494873 
	C133.896561,67.925728 134.025925,53.243141 127.178497,38.009480 
z"/>
<path fill="#1E76B1" opacity="1.000000" stroke="none" 
	d="
M41.001514,17.008797 
	C41.001514,17.008797 40.778194,17.195398 40.253067,17.322435 
	C39.485352,19.029354 39.044800,20.607779 39.033173,22.189358 
	C38.970329,30.733986 39.013767,39.279396 38.552006,47.869808 
	C33.932861,47.926090 29.777859,47.821247 25.632874,47.979206 
	C21.073732,48.152946 16.523800,48.568436 11.969854,48.878601 
	C11.846662,49.642166 11.723469,50.405735 11.209698,51.685829 
	C10.983406,53.497669 11.147694,54.792984 11.311979,56.088295 
	C11.356316,57.107162 11.400651,58.126034 11.051825,59.778893 
	C10.284681,63.397072 8.339904,66.645164 12.090672,68.936363 
	C12.090672,68.936363 12.031606,68.987656 12.307946,69.261299 
	C21.362566,69.679733 30.140844,69.824524 38.946815,70.440475 
	C38.983856,78.320190 38.909481,85.730553 39.068691,93.135887 
	C39.103191,94.740417 39.976738,96.326920 40.463825,97.921722 
	C40.463825,97.921722 40.748703,97.815147 41.113358,98.185181 
	C44.302814,99.014862 45.926231,100.141655 44.445042,103.351883 
	C44.073723,104.156654 44.252243,105.215111 44.178066,106.156975 
	C44.178066,106.156975 44.059963,106.030075 43.743065,106.187103 
	C41.810204,106.637207 40.194233,106.930290 38.578266,107.223366 
	C38.578266,107.223366 38.271328,107.297714 37.956532,106.944885 
	C37.029957,106.468819 36.418182,106.345589 35.806408,106.222351 
	C35.806408,106.222351 35.844528,106.114250 35.781563,105.877228 
	C35.384499,105.480530 35.050400,105.320854 34.716301,105.161171 
	C34.716301,105.161171 34.880482,105.135338 34.789818,104.924728 
	C34.354038,104.546776 34.008919,104.379433 33.663795,104.212097 
	C33.663795,104.212097 33.826138,104.167343 33.762909,103.953384 
	C33.373428,103.539825 33.047184,103.340218 32.720936,103.140610 
	C32.720936,103.140610 32.870331,103.107689 32.812698,102.908051 
	C32.488274,102.463890 32.221474,102.219376 31.954676,101.974861 
	C31.954674,101.974861 31.792122,101.796837 31.873085,101.178726 
	C31.970560,94.176193 32.026772,87.791328 31.955135,81.407890 
	C31.945808,80.576782 31.278259,79.753044 30.888702,78.932434 
	C30.861811,78.938980 30.806616,78.934860 30.806616,78.934860 
	C24.493980,78.797195 18.181347,78.659538 11.268456,78.059158 
	C9.612022,77.455902 8.555842,77.315361 7.499663,77.174828 
	C6.387215,76.326302 5.274765,75.477768 4.082561,73.899277 
	C3.620377,64.055862 3.237950,54.942421 2.855523,45.828979 
	C2.855523,45.828979 2.901371,45.916302 3.145896,45.780457 
	C3.549030,45.041882 3.707639,44.439152 3.866247,43.836422 
	C3.866247,43.836422 3.908885,43.923027 4.129639,43.820351 
	C4.497894,43.382820 4.645395,43.047966 4.792896,42.713108 
	C4.792896,42.713108 4.829252,42.839043 5.056179,42.768867 
	C5.454693,42.367657 5.626280,42.036621 5.797866,41.705585 
	C5.797866,41.705585 5.839571,41.829285 6.060213,41.774712 
	C6.488988,41.418491 6.697122,41.116844 6.905254,40.815197 
	C6.905254,40.815197 6.932122,40.916451 7.320420,40.926609 
	C13.796280,40.627747 19.889086,40.392628 25.967970,39.961304 
	C27.629822,39.843388 29.249880,39.136406 30.889116,38.699753 
	C30.874121,31.879217 30.796453,25.058079 30.862228,18.238323 
	C30.924646,11.766503 34.292183,7.816362 40.746571,7.408617 
	C47.042976,7.010853 53.399147,6.995492 59.698002,7.355696 
	C66.232117,7.729352 69.402916,11.935360 69.501724,19.557886 
	C69.583199,25.843121 69.518364,32.130253 69.518364,39.013390 
	C75.602432,39.013390 81.212677,38.972363 86.822090,39.023457 
	C94.361061,39.092121 98.059731,42.856133 98.092285,50.414669 
	C98.109375,54.382236 98.095299,58.349937 98.095299,62.681969 
	C94.828712,62.681969 91.934143,62.681969 88.783035,62.681969 
	C88.409935,58.107990 88.037903,53.547226 86.916000,48.542671 
	C79.366203,48.052876 72.560493,47.822208 65.768715,48.035542 
	C62.148243,48.149269 60.751991,47.165859 60.889740,43.324905 
	C61.163151,35.701210 61.088943,28.056980 60.857864,20.430340 
	C60.813747,18.974264 59.399845,16.332869 58.592514,16.323030 
	C52.732502,16.251631 46.865978,16.714754 41.001514,17.008797 
z"/>
<path fill="#FEFEFD" opacity="1.000000" stroke="none" 
	d="
M275.966553,49.999611 
	C276.595581,49.404655 277.696777,48.867264 277.777435,48.205471 
	C278.326202,43.703648 278.366119,39.119041 279.219727,34.686203 
	C279.525513,33.098186 281.415100,31.536116 282.949432,30.514080 
	C288.348694,26.917582 295.621155,29.942144 297.107117,36.050320 
	C297.438721,37.413406 298.771637,38.532887 299.667572,39.798439 
	C299.467834,41.955395 299.233551,44.485535 298.814362,47.537933 
	C298.629425,48.060192 298.201965,48.097031 297.901947,48.061630 
	C297.400879,48.013752 297.199829,48.001278 296.849152,47.687405 
	C295.190948,46.590286 293.682404,45.794559 292.083160,44.577316 
	C292.052338,42.437515 292.112213,40.719231 292.549561,38.986145 
	C293.546631,37.597797 294.920990,35.206249 294.663635,35.015434 
	C292.954865,33.748493 290.980194,32.629086 288.927460,32.099113 
	C287.043365,31.612679 284.810059,31.724873 284.693695,35.097225 
	C284.187195,39.601826 283.985901,43.800034 283.399597,48.016884 
	C279.852264,50.780434 280.150360,53.508827 283.873932,55.461212 
	C284.004028,63.899452 284.035950,71.878426 284.041870,80.146698 
	C284.010162,80.629578 284.004486,80.823166 284.066895,81.373108 
	C286.015869,83.469009 287.742401,84.040863 289.275787,81.052612 
	C290.016693,80.773346 290.484680,80.527618 291.187988,80.102295 
	C291.666656,79.615158 291.910034,79.307610 292.508209,78.990540 
	C293.517792,78.452957 294.172607,77.924896 294.827423,77.396835 
	C293.941467,76.930977 293.055542,76.465111 292.079285,75.538406 
	C292.048126,68.052055 292.107300,61.026527 292.545746,54.009811 
	C296.267426,55.345699 299.609802,56.672779 303.056732,58.455841 
	C303.248383,63.570454 303.335510,68.229080 303.075897,72.939919 
	C302.326080,73.387085 301.923004,73.782043 301.519928,74.177017 
	C302.366180,74.444397 303.212402,74.711769 304.318604,75.186951 
	C306.762299,77.114799 308.946045,78.834846 311.129822,80.554886 
	C311.244720,82.024178 311.359619,83.493477 311.478149,85.009621 
	C305.904388,88.258224 304.728027,87.870049 300.837067,82.662636 
	C300.275696,81.911324 297.198792,81.896057 296.385010,82.680420 
	C293.319489,85.635155 287.314972,87.097313 283.292267,86.283386 
	C280.103271,85.638153 276.599731,85.890396 273.339905,86.404205 
	C268.268982,87.203491 263.300537,88.637466 258.250244,89.601067 
	C257.531097,89.738274 256.642120,88.615059 255.751801,88.303635 
	C254.006699,87.693207 252.196426,87.271919 250.430618,86.716682 
	C249.424820,86.400429 248.171829,86.212547 247.574524,85.506401 
	C247.227081,85.095642 247.681473,83.345558 248.269043,82.969109 
	C249.036865,82.477173 250.293533,82.693459 251.339386,82.699051 
	C259.210236,82.741135 267.084137,82.930412 274.948395,82.731850 
	C276.141357,82.701721 279.808563,82.039452 276.202423,78.601654 
	C275.822815,74.732010 275.887909,71.366394 276.333130,67.925598 
	C278.343750,65.356583 279.552094,62.909782 275.850159,60.549622 
	C275.822479,56.733345 275.894531,53.366478 275.966553,49.999611 
z"/>
<path fill="#5CB05A" opacity="1.000000" stroke="none" 
	d="
M54.746155,92.659454 
	C56.764980,86.073448 58.379177,79.753387 60.762894,73.738289 
	C61.557255,71.733788 64.293114,69.180984 66.191788,69.138664 
	C82.498756,68.775146 98.817284,68.929939 114.530098,68.929939 
	C114.530098,72.264702 114.530098,75.222893 114.530098,78.754089 
	C104.640907,78.754089 94.037529,78.757881 83.434151,78.753098 
	C71.139481,78.747551 71.136520,78.743378 67.522858,90.515877 
	C66.302582,94.491287 64.813484,98.412598 63.969158,102.467316 
	C63.046673,106.897392 60.791348,108.637741 56.336605,107.913696 
	C54.580124,107.628212 52.738449,107.866898 50.113358,107.866898 
	C51.760971,102.473946 53.201389,97.759171 54.746155,92.659454 
z"/>
<path fill="#2878AC" opacity="1.000000" stroke="none" 
	d="
M407.191254,64.976562 
	C403.164490,75.872231 395.105133,80.503426 383.764740,80.189766 
	C379.474304,80.071098 375.176849,80.206703 370.192566,80.231720 
	C369.502533,80.237030 369.031555,80.321396 369.031555,80.321396 
	C368.688843,79.766457 368.346130,79.211525 368.001465,77.907516 
	C367.934204,75.438683 367.868896,73.718925 367.803589,71.999161 
	C367.803589,60.257732 367.803589,48.516308 367.803589,36.130852 
	C374.926422,36.130852 381.487183,36.130852 388.720093,36.281891 
	C389.936005,36.472740 390.479736,36.512550 391.023468,36.552361 
	C397.301788,38.320484 402.372925,41.664585 405.735687,48.097816 
	C406.300842,49.075836 406.584656,49.562260 406.868469,50.048691 
	C407.255035,52.115128 407.641602,54.181564 408.036194,56.958107 
	C408.087036,58.105721 408.129852,58.543228 408.172638,58.980736 
	C407.996338,60.197609 407.820068,61.414482 407.475098,63.203499 
	C407.268036,64.175949 407.229645,64.576256 407.191254,64.976562 
M383.408630,74.165337 
	C384.238373,74.164429 385.069489,74.194458 385.897644,74.157845 
	C394.376587,73.782860 400.252716,68.448830 400.916016,60.537983 
	C401.710052,51.068237 397.059235,43.830471 388.528656,42.406563 
	C384.231598,41.689304 379.716003,42.281368 375.228699,42.281368 
	C375.228699,53.049961 375.228699,63.402573 375.228699,74.161324 
	C377.873077,74.161324 380.166168,74.161324 383.408630,74.165337 
z"/>
<path fill="#277AB1" opacity="1.000000" stroke="none" 
	d="
M169.039032,36.586094 
	C169.230423,38.799957 169.421799,41.013821 169.162994,43.777962 
	C168.936569,47.215328 169.160324,50.102409 169.384064,52.989494 
	C176.081741,53.465950 182.779404,53.942406 190.195679,54.469978 
	C190.195679,47.973949 190.195679,42.267120 190.195679,36.300507 
	C193.113922,36.300507 195.348053,36.300507 197.883148,36.300507 
	C197.883148,50.895607 197.883148,65.273399 197.883148,79.868797 
	C195.345688,79.868797 193.110321,79.868797 190.398392,79.868797 
	C190.398392,73.659828 190.398392,67.721443 190.398392,61.457726 
	C183.340668,61.457726 176.750397,61.457726 169.463028,61.890717 
	C168.511185,66.737503 168.379364,71.164185 167.919144,75.556458 
	C167.797241,76.720024 166.664642,77.777702 165.996094,78.883987 
	C165.005264,77.815308 163.916397,76.816910 163.073990,75.641838 
	C162.756516,75.199013 162.997803,74.346985 163.004410,73.681694 
	C163.121613,61.884407 163.254013,50.087215 163.313889,38.289650 
	C163.316116,37.850693 162.618027,37.408180 162.246307,36.967323 
	C163.897736,36.668266 165.549164,36.369213 167.593750,36.474068 
	C168.042633,37.642658 168.098373,38.407341 168.154099,39.172024 
	C168.361725,39.181438 168.569366,39.190853 168.776993,39.200264 
	C168.864349,38.328876 168.951691,37.457485 169.039032,36.586094 
z"/>
<path fill="#297AAF" opacity="1.000000" stroke="none" 
	d="
M275.953003,68.000778 
	C275.887909,71.366394 275.822815,74.732010 275.851196,78.547897 
	C272.714386,80.735741 269.630798,81.619995 267.376831,77.542969 
	C256.641815,83.167870 249.217194,81.329575 243.094177,70.969025 
	C242.688232,70.057465 242.463699,69.732719 242.239166,69.407974 
	C242.237625,66.085213 242.236084,62.762436 242.475616,58.819664 
	C242.783279,57.802589 242.849869,57.405518 242.916473,57.008446 
	C245.304367,52.230297 248.814789,48.818066 254.844727,47.659397 
	C255.986725,47.438625 256.507721,47.274487 257.028717,47.110352 
	C260.377136,47.904522 263.725555,48.698689 267.433014,49.578011 
	C269.704224,47.568096 272.541687,46.465244 275.835876,49.620285 
	C275.894531,53.366478 275.822479,56.733345 275.747131,60.978348 
	C275.813538,63.904579 275.883301,65.952675 275.953003,68.000778 
M264.330231,71.943443 
	C268.406799,67.265366 269.130280,61.357029 265.779602,57.502655 
	C262.909088,54.200615 259.198151,53.039898 255.005890,54.864475 
	C250.694595,56.740852 248.746719,61.911633 250.173935,67.226379 
	C251.740967,73.061813 257.146576,75.130089 264.330231,71.943443 
z"/>
<path fill="#2979AD" opacity="1.000000" stroke="none" 
	d="
M226.033691,47.616428 
	C235.078018,51.379742 238.262039,56.361759 236.847565,65.841156 
	C234.774872,66.183968 233.371872,66.270271 231.968857,66.356575 
	C226.631165,66.308624 221.293472,66.260674 215.173859,66.220306 
	C214.554825,67.572968 214.717728,68.918045 214.880630,70.263107 
	C215.387878,70.803474 215.895126,71.343842 216.768799,72.167252 
	C217.135208,72.450287 217.512283,72.728981 217.512283,72.728981 
	C217.512283,72.728981 217.979340,72.687729 217.979340,72.687729 
	C220.062714,73.077568 222.146072,73.467407 224.897827,73.815765 
	C225.858566,73.576965 226.150909,73.379662 226.443268,73.182358 
	C228.102341,72.514549 229.761414,71.846741 232.022858,70.936462 
	C233.032211,72.075714 234.269226,73.471909 235.460800,74.816811 
	C230.552673,80.690323 222.363358,82.294212 214.879333,79.150848 
	C207.873306,76.208244 204.172760,69.491791 205.108963,61.417740 
	C205.916367,54.454403 210.963440,49.162426 218.226181,47.769421 
	C219.842209,47.459457 221.506989,47.403671 223.765167,47.366966 
	C224.931900,47.540867 225.482788,47.578648 226.033691,47.616428 
M220.725876,53.776340 
	C216.750732,54.304947 214.108612,56.290791 213.014297,60.767181 
	C218.900970,60.767181 224.357635,60.767181 230.256622,60.767181 
	C228.841934,55.984154 226.127670,53.707451 220.725876,53.776340 
z"/>
<path fill="#2376AE" opacity="1.000000" stroke="none" 
	d="
M349.025970,47.426636 
	C349.463684,47.571201 349.901398,47.715771 350.870880,48.096657 
	C351.949219,48.512722 352.495758,48.692467 353.205688,49.119148 
	C353.877075,49.652439 354.385132,49.938793 354.950134,50.445377 
	C355.181030,50.947178 355.433167,51.097538 355.829498,51.409622 
	C356.468323,52.512508 357.041168,53.322453 357.683472,54.460732 
	C357.924927,55.201759 358.096893,55.614449 358.227478,56.271301 
	C358.201447,56.896954 358.391907,57.142811 358.763336,57.271736 
	C358.769226,57.290436 358.735535,57.315815 358.735077,57.748161 
	C358.888397,60.797527 359.042175,63.414551 359.109100,66.436234 
	C359.082184,68.213882 359.142120,69.586868 359.127625,71.404282 
	C358.000488,74.593918 361.158417,78.353043 356.611145,80.257828 
	C355.142731,80.222229 354.068848,80.280533 352.679871,80.231018 
	C351.926910,80.050430 351.489075,79.977669 351.051208,79.904900 
	C351.009949,74.227264 350.968719,68.549629 350.891479,62.080696 
	C350.592773,60.472191 350.330048,59.654980 350.067291,58.837769 
	C350.067291,58.837769 350.058899,58.367752 349.935699,57.913925 
	C349.568176,57.236118 349.323883,57.012138 349.079559,56.788162 
	C346.771820,53.880863 343.892548,53.509193 340.056824,55.061203 
	C339.176819,55.386021 338.986267,55.629597 338.921783,55.971821 
	C337.926910,57.385769 336.932037,58.799721 335.793579,60.680134 
	C335.438751,61.385311 335.438324,61.624332 335.648743,61.863659 
	C335.324432,67.836884 335.000122,73.810112 333.999451,79.972282 
	C332.899261,80.220947 332.475433,80.280663 332.051605,80.340378 
	C331.265625,80.280533 330.479614,80.220680 329.318817,80.133080 
	C328.944000,80.105331 329.040527,79.884911 329.028564,79.424118 
	C329.011536,66.428123 329.036285,53.892761 328.967224,41.357918 
	C328.957581,39.611908 328.486206,37.868439 328.190674,35.881424 
	C328.152771,35.639050 328.112549,35.150059 328.112549,35.150059 
	C330.221893,35.150059 332.331207,35.150059 335.156403,35.150059 
	C335.156403,38.591358 335.156403,41.833996 335.149200,45.885925 
	C335.208008,47.893795 335.274017,49.092377 335.369659,50.828583 
	C337.251251,49.633785 338.610199,48.770885 339.969116,47.907982 
	C342.047516,47.678822 344.125885,47.449661 346.810516,47.305714 
	C347.953156,47.402828 348.489563,47.414734 349.025970,47.426636 
z"/>
<path fill="#2776AB" opacity="1.000000" stroke="none" 
	d="
M427.952820,74.630791 
	C429.049133,74.710152 430.145477,74.789505 431.941650,74.843262 
	C433.166626,74.575439 433.691681,74.333214 434.216766,74.090988 
	C434.216766,74.090996 434.657776,74.094383 435.114319,73.972374 
	C435.835266,73.611069 436.099731,73.371765 436.364166,73.132462 
	C436.839264,72.921440 437.314362,72.710419 438.153961,72.190002 
	C438.730927,71.608109 438.943359,71.335602 439.155823,71.063095 
	C440.497925,72.177498 441.840057,73.291893 443.369385,74.561752 
	C439.557098,79.861877 434.328400,80.600060 428.158264,80.635818 
	C426.320221,80.400352 425.174622,80.286438 424.029053,80.172531 
	C424.029053,80.172531 423.681488,79.916374 423.327332,79.706612 
	C422.692841,79.269318 422.381622,79.213196 422.039490,79.328476 
	C420.247498,77.975105 418.455505,76.621735 416.295837,74.844635 
	C415.659088,74.164268 415.389954,73.907623 415.120850,73.650970 
	C415.120850,73.650970 415.067627,73.257957 414.923035,72.870239 
	C414.645630,72.145302 414.401154,71.942833 414.045074,71.875137 
	C414.045074,71.875137 413.994904,71.391953 413.893646,70.913033 
	C413.573212,70.166428 413.354004,69.898743 413.134827,69.631065 
	C413.064606,68.959999 412.994354,68.288940 412.899841,66.972961 
	C412.789764,65.905884 412.703949,65.483711 412.618103,65.061531 
	C412.667328,64.593277 412.716492,64.125015 412.786377,63.080124 
	C412.807068,62.503487 412.701660,62.026043 412.701660,62.026043 
	C412.808899,61.283794 412.916107,60.541542 413.258118,59.251812 
	C413.597870,58.145859 413.702820,57.587383 413.807770,57.028908 
	C413.807770,57.028908 414.047791,56.659061 414.300873,56.310524 
	C414.657013,55.631699 414.760071,55.301411 414.863129,54.971123 
	C417.057434,52.982841 419.251709,50.994553 421.969055,48.844307 
	C422.817139,48.590145 423.012665,48.378326 423.078644,48.046902 
	C423.078644,48.046902 423.015656,48.003624 423.281891,48.034622 
	C423.692017,47.974518 423.835938,47.883415 423.979858,47.792313 
	C424.433655,47.785332 424.887421,47.778355 425.928711,47.709763 
	C427.022858,47.465542 427.529449,47.282932 428.036072,47.100319 
	C434.519196,47.466492 440.174500,49.310905 443.620117,56.248367 
	C444.401062,58.872974 444.872345,60.903297 445.343628,62.933617 
	C445.103210,63.930801 444.862793,64.927986 444.060608,66.070396 
	C443.498901,66.215622 443.040405,66.370918 443.040405,66.370918 
	C435.659363,66.328194 428.278351,66.285477 420.336334,66.351135 
	C419.775360,66.459511 419.614319,66.828407 419.614319,66.828407 
	C419.614319,66.828407 419.954590,67.088821 419.954590,67.088821 
	C419.913513,67.254433 419.872467,67.420036 419.962097,68.088684 
	C420.407928,69.035912 420.723114,69.480110 421.038300,69.924301 
	C421.038300,69.924301 421.001251,69.982231 421.073395,70.241463 
	C421.418427,70.702187 421.691284,70.903671 421.964142,71.105164 
	C421.992218,71.450623 422.153198,71.715256 422.770081,72.210571 
	C423.405640,72.650581 423.718201,72.779091 424.030731,72.907608 
	C424.030731,72.907600 424.034027,72.983864 424.212158,73.212906 
	C424.921204,73.589058 425.452179,73.736168 425.983124,73.883286 
	C425.983124,73.883286 426.299042,74.128708 426.647125,74.326431 
	C427.314423,74.559700 427.633606,74.595245 427.952820,74.630791 
M419.548431,60.704548 
	C425.888824,61.178658 432.229248,61.652767 439.104156,62.166843 
	C437.714142,55.845058 434.742493,53.061111 429.582855,52.865360 
	C424.489166,52.672115 420.991486,54.844742 419.548431,60.704548 
z"/>
<path fill="#2C79AC" opacity="1.000000" stroke="none" 
	d="
M449.858154,56.023064 
	C449.971985,55.692898 450.085846,55.362732 450.412415,54.587284 
	C450.707001,53.767460 450.788849,53.392914 450.870667,53.018372 
	C452.102478,51.779228 453.334259,50.540077 455.073792,49.072536 
	C456.023865,48.551384 456.466125,48.258617 456.908417,47.965855 
	C461.255341,47.983894 465.602295,48.001938 470.483521,48.263672 
	C471.017822,48.507362 471.466309,48.713638 471.466309,48.713638 
	C471.466309,48.713638 471.957886,48.668678 471.957886,48.668682 
	C472.588287,50.269115 473.218689,51.869545 473.849121,53.469971 
	C472.224274,53.891335 470.600708,54.654617 468.974335,54.660603 
	C465.894135,54.671951 462.812714,54.103706 459.730927,54.095127 
	C458.815155,54.092575 457.391541,54.984951 457.123779,55.778698 
	C456.866180,56.542110 457.529877,58.116917 458.271790,58.613323 
	C459.841278,59.663479 461.676147,60.400784 463.494720,60.971390 
	C465.332397,61.547989 467.405487,61.472828 469.156738,62.205734 
	C472.832092,63.743858 475.661224,66.259682 475.940948,70.576141 
	C476.243927,75.251457 473.228607,77.716240 469.002930,79.836807 
	C468.333557,80.129318 468.181091,80.204437 468.028625,80.279556 
	C464.604553,80.260132 461.180511,80.240707 457.132141,80.170456 
	C456.507843,80.119629 456.011749,80.166275 456.011749,80.166275 
	C453.792236,78.843170 451.572754,77.520058 449.519958,75.703018 
	C449.789398,74.805885 449.892120,74.402687 449.994843,73.999481 
	C451.415314,73.645294 452.835815,73.291107 454.700439,73.177338 
	C455.144592,73.417755 455.512024,73.671074 455.512024,73.671074 
	C455.512024,73.671074 455.957336,73.642128 455.957336,73.642136 
	C456.338013,73.796928 456.718658,73.951721 457.558472,74.299088 
	C458.017578,74.491646 458.466766,74.668678 458.466766,74.668678 
	C458.466766,74.668678 458.941803,74.582672 458.941803,74.582672 
	C461.027191,74.673462 463.112610,74.764252 465.841614,74.748413 
	C466.786591,74.536118 466.973938,74.327873 467.047333,74.017044 
	C467.390503,74.049171 467.677582,73.937309 468.303833,73.243713 
	C468.482788,71.497307 468.266449,70.188667 468.050140,68.880028 
	C467.640778,68.561714 467.231384,68.243408 466.405365,67.704987 
	C465.700500,67.247780 465.385834,67.204849 465.044739,67.356079 
	C464.122131,67.148857 463.199554,66.941643 461.722107,66.559761 
	C460.792267,66.363770 460.417267,66.342438 460.042236,66.321098 
	C459.426086,66.152588 458.809906,65.984077 457.680176,65.595604 
	C456.786774,65.313896 456.406982,65.252159 456.027161,65.190430 
	C454.128876,63.306568 452.230591,61.422703 450.187988,58.894104 
	C449.981812,57.507267 449.919983,56.765163 449.858154,56.023064 
z"/>
<path fill="#287AB0" opacity="1.000000" stroke="none" 
	d="
M311.538147,80.556137 
	C308.946045,78.834846 306.762299,77.114799 304.316132,74.906998 
	C303.843353,73.908737 303.632996,73.398224 303.422638,72.887711 
	C303.335510,68.229080 303.248383,63.570454 303.160400,58.082268 
	C303.049042,56.498844 302.938538,55.744976 302.832397,54.767578 
	C302.620483,54.241196 302.356354,54.191242 301.655579,54.298279 
	C300.085876,53.782654 298.904877,53.362930 297.812134,52.546082 
	C298.000916,50.798313 298.101440,49.447674 298.201965,48.097031 
	C298.201965,48.097031 298.629425,48.060192 298.814056,47.950928 
	C299.756683,47.889446 300.514679,47.937237 301.909546,47.928879 
	C302.680756,47.582787 302.815033,47.292843 302.949310,47.002899 
	C303.076233,45.025299 303.203186,43.047707 303.763367,40.581131 
	C306.432953,40.074173 308.669281,40.056194 310.954773,40.474987 
	C311.130676,42.952511 311.257385,44.993267 311.338074,47.230988 
	C311.292084,47.427959 311.573730,47.718090 311.573730,47.718090 
	C311.573730,47.718090 311.973480,47.656551 312.399994,47.772022 
	C314.884674,47.855816 316.942810,47.824139 319.207764,47.898376 
	C319.414581,48.004295 319.875763,48.061798 319.927307,48.500271 
	C319.978851,50.504486 319.978851,52.070229 319.978851,53.858738 
	C317.030029,54.077412 314.491760,54.265644 311.775513,54.400211 
	C311.301117,54.481388 311.238312,54.687504 311.278625,55.391827 
	C311.189819,57.897903 311.231567,59.977051 311.172668,62.481987 
	C311.347839,65.689346 311.623657,68.470917 311.909637,71.538300 
	C312.281189,72.215668 312.642548,72.607231 313.078491,73.213341 
	C313.153046,73.427887 313.509369,73.709045 313.509369,73.709045 
	C313.509369,73.709045 313.960236,73.656822 314.335754,73.772873 
	C315.486420,73.818130 316.261597,73.747337 317.283051,73.708488 
	C317.884003,73.651970 318.116882,73.433586 318.542542,73.101547 
	C319.606750,73.750107 320.356354,74.382408 321.103271,75.323669 
	C321.338776,75.953560 321.576935,76.274483 321.798889,76.878845 
	C321.832458,77.726860 321.882233,78.291443 321.604919,78.947990 
	C320.299866,79.603004 319.321838,80.166054 318.059662,80.593246 
	C317.183655,80.635582 316.591827,80.813782 316.000000,80.991982 
	C314.648834,80.847115 313.297638,80.702248 311.538147,80.556137 
z"/>
<path fill="#FEFEFD" opacity="1.000000" stroke="none" 
	d="
M350.902344,80.236771 
	C351.489075,79.977669 351.926910,80.050430 352.696716,80.582642 
	C353.801239,81.672615 354.573792,82.303146 355.346344,82.933670 
	C355.899445,82.073029 356.452515,81.212387 357.005615,80.351738 
	C361.158417,78.353043 358.000488,74.593918 359.357300,71.158112 
	C359.506287,68.988869 359.351105,67.510223 359.195953,66.031570 
	C359.042175,63.414551 358.888397,60.797527 359.099213,57.615261 
	C359.852020,56.326572 360.240204,55.603130 360.628387,54.879684 
	C359.623596,54.630585 358.618805,54.381489 357.614014,54.132393 
	C357.041168,53.322453 356.468323,52.512508 356.081940,51.258141 
	C356.312469,50.390659 356.356537,49.967598 356.400604,49.544540 
	C355.898132,49.771416 355.395630,49.998283 354.893158,50.225151 
	C354.385132,49.938793 353.877075,49.652439 353.198181,48.808044 
	C353.017395,47.835270 353.007477,47.420536 352.997559,47.005798 
	C353.727295,43.719044 355.902557,45.066895 357.013275,46.213734 
	C359.940216,49.235859 362.498718,52.614849 365.209106,56.177162 
	C365.214264,56.502594 365.437073,56.391834 365.437073,56.391834 
	C365.335510,61.157940 365.185669,65.924347 365.214996,70.689644 
	C365.217621,71.116470 366.381165,71.536133 367.404572,71.979141 
	C367.868896,73.718925 367.934204,75.438683 367.904480,77.579544 
	C366.941803,78.670151 366.074158,79.339645 365.206512,80.009148 
	C366.417603,80.992111 367.503693,82.549500 368.864288,82.845650 
	C372.341156,83.602409 375.940369,83.797211 379.490631,84.216789 
	C379.584564,84.808044 379.678497,85.399292 379.772430,85.990540 
	C376.543518,86.607300 373.271362,87.897728 370.095154,87.693771 
	C364.343933,87.324448 358.660095,85.983849 352.921967,85.254601 
	C351.968323,85.133392 350.912170,86.307854 349.849854,86.434669 
	C348.354279,86.613213 346.808685,86.372459 345.284485,86.311005 
	C346.161957,85.208817 346.973175,84.044144 347.936737,83.023178 
	C348.787445,82.121735 349.807953,81.380577 350.902344,80.236771 
z"/>
<path fill="#FEFEFD" opacity="1.000000" stroke="none" 
	d="
M310.905609,40.038216 
	C308.669281,40.056194 306.432953,40.074173 303.788696,40.158386 
	C300.359100,36.905830 303.396729,35.458630 305.595398,35.258625 
	C308.401062,35.003395 311.565521,35.574703 314.145447,36.740833 
	C317.406464,38.214806 319.065704,37.941353 320.813324,34.621296 
	C323.856659,28.839617 329.392487,27.411589 333.354004,30.733974 
	C331.287659,31.889996 329.162781,33.078766 327.093811,34.972511 
	C327.252380,35.855648 327.355072,36.033806 327.403870,36.648232 
	C327.234283,40.056328 327.118622,43.028164 326.624146,46.005440 
	C324.122162,46.694519 321.998962,47.378162 319.875763,48.061802 
	C319.875763,48.061798 319.414581,48.004295 319.193176,47.527111 
	C316.768799,44.729240 314.588379,42.386059 312.330963,40.119568 
	C312.080811,39.868397 311.391327,40.054771 310.905609,40.038216 
z"/>
<path fill="#FEFEFD" opacity="1.000000" stroke="none" 
	d="
M500.000000,81.999992 
	C498.307983,81.439163 496.615936,80.878334 494.879852,80.302910 
	C488.586365,90.692719 481.365204,81.612640 474.558716,81.356461 
	C476.046082,75.871109 476.726410,75.514626 481.527649,78.336929 
	C483.279968,79.532021 484.641693,80.299538 486.064392,81.397163 
	C487.063446,82.088135 488.001495,82.448982 488.939575,82.809830 
	C488.943207,82.195595 488.946869,81.581375 489.045441,80.752747 
	C489.300690,80.253105 489.533966,80.052834 490.224457,79.896881 
	C491.343201,78.086845 492.077728,76.317459 492.876923,74.392326 
	C493.845459,74.580879 494.922729,74.790588 496.050476,75.335907 
	C497.400635,77.781013 498.700317,79.890503 500.000000,81.999992 
z"/>
<path fill="#FEFEFD" opacity="1.000000" stroke="none" 
	d="
M315.994629,81.369331 
	C316.591827,80.813782 317.183655,80.635582 318.514801,80.675217 
	C320.167786,80.927895 321.081451,80.962730 322.327759,81.141754 
	C324.117889,80.829666 325.575378,80.373383 327.293945,79.940826 
	C327.727356,79.935730 327.899719,79.906906 328.313721,79.949684 
	C328.717072,79.975822 328.878815,79.930367 329.040527,79.884911 
	C329.040527,79.884911 328.944000,80.105331 328.933044,80.225136 
	C330.461731,82.249542 332.001404,84.154144 334.701538,87.494247 
	C327.855499,86.520668 322.118286,85.704773 315.709259,84.793335 
	C315.743073,84.425415 315.866180,83.086052 315.994629,81.369331 
z"/>
<path fill="#427FA1" opacity="1.000000" stroke="none" 
	d="
M41.467888,17.050280 
	C46.865978,16.714754 52.732502,16.251631 58.592514,16.323030 
	C59.399845,16.332869 60.813747,18.974264 60.857864,20.430340 
	C61.088943,28.056980 61.163151,35.701210 60.889740,43.324905 
	C60.751991,47.165859 62.148243,48.149269 65.768715,48.035542 
	C72.560493,47.822208 79.366203,48.052876 86.517715,48.281250 
	C78.125854,48.463623 69.382401,48.463623 60.095451,48.463623 
	C60.095451,38.318584 60.095451,28.126612 60.095451,17.091763 
	C53.701077,17.091763 47.817669,17.091763 41.467888,17.050280 
z"/>
<path fill="#2F77A2" opacity="1.000000" stroke="none" 
	d="
M162.116287,37.423794 
	C162.618027,37.408180 163.316116,37.850693 163.313889,38.289650 
	C163.254013,50.087215 163.121613,61.884407 163.004410,73.681694 
	C162.997803,74.346985 162.756516,75.199013 163.073990,75.641838 
	C163.916397,76.816910 165.005264,77.815308 165.996094,78.883987 
	C166.664642,77.777702 167.797241,76.720024 167.919144,75.556458 
	C168.379364,71.164185 168.511185,66.737503 169.104248,62.170639 
	C169.452621,67.226097 169.462692,72.434616 169.283051,78.343338 
	C169.078629,79.241119 169.063919,79.438705 169.049210,79.636284 
	C166.950562,79.846733 164.851913,80.057190 161.986267,80.344551 
	C161.986267,65.885773 161.986267,51.883018 162.116287,37.423794 
z"/>
<path fill="#FEFEFD" opacity="1.000000" stroke="none" 
	d="
M477.479034,59.677383 
	C478.548370,61.668274 479.459076,63.332066 480.782898,65.750694 
	C473.736938,64.573944 473.271423,63.069313 475.642944,53.496811 
	C479.554443,54.294891 479.554443,54.294891 477.479034,59.677383 
z"/>
<path fill="#1F6C9D" opacity="1.000000" stroke="none" 
	d="
M482.935547,36.446754 
	C483.397644,37.734779 483.949310,39.467136 483.959778,41.202763 
	C484.033691,53.449322 483.996429,65.696548 483.608246,78.239471 
	C482.984985,75.357491 482.748138,72.179604 482.511292,69.001724 
	C482.599030,58.298679 482.686798,47.595638 482.935547,36.446754 
z"/>
<path fill="#BFDBE3" opacity="1.000000" stroke="none" 
	d="
M482.308136,69.340210 
	C482.748138,72.179604 482.984985,75.357491 483.605896,78.699585 
	C485.575836,78.863785 487.161713,78.863785 488.555237,78.863785 
	C488.911316,76.156250 489.200256,73.958961 489.776642,71.966095 
	C489.989441,74.759529 489.914825,77.348526 489.840210,79.937531 
	C489.533966,80.052834 489.300690,80.253105 488.677551,80.761810 
	C487.477600,81.012543 486.740540,81.039795 486.003448,81.067047 
	C484.641693,80.299538 483.279968,79.532021 481.860504,78.383179 
	C481.903534,75.227470 482.004272,72.453087 482.308136,69.340210 
z"/>
<path fill="#19699A" opacity="1.000000" stroke="none" 
	d="
M39.020565,47.824535 
	C39.013767,39.279396 38.970329,30.733986 39.033173,22.189358 
	C39.044800,20.607779 39.485352,19.029354 40.122742,17.257719 
	C40.421989,27.071993 40.326431,37.078022 39.854942,47.497887 
	C39.479019,47.911728 39.020565,47.824535 39.020565,47.824535 
z"/>
<path fill="#32779F" opacity="1.000000" stroke="none" 
	d="
M2.643896,45.970917 
	C3.237950,54.942421 3.620377,64.055862 4.000338,73.600769 
	C3.443074,73.191887 2.888278,72.351540 2.154705,71.256516 
	C1.978122,63.306244 1.980314,55.610641 1.937897,47.446350 
	C2.072949,46.689388 2.252609,46.401123 2.643896,45.970917 
z"/>
<path fill="#4888B0" opacity="1.000000" stroke="none" 
	d="
M38.919125,69.969315 
	C30.140844,69.824524 21.362566,69.679733 12.306651,69.222214 
	C21.263199,68.986557 30.497383,69.063637 39.625961,69.543610 
	C39.319946,69.954094 39.119537,69.961700 38.919125,69.969315 
z"/>
<path fill="#4888B0" opacity="1.000000" stroke="none" 
	d="
M38.552006,47.869808 
	C39.020565,47.824535 39.479019,47.911728 39.709728,47.946106 
	C36.752342,48.293045 33.569038,48.796486 30.375113,48.876579 
	C24.556959,49.022484 18.732504,48.917236 12.440267,48.897690 
	C16.523800,48.568436 21.073732,48.152946 25.632874,47.979206 
	C29.777859,47.821247 33.932861,47.926090 38.552006,47.869808 
z"/>
<path fill="#19699A" opacity="1.000000" stroke="none" 
	d="
M38.946815,70.440475 
	C39.119537,69.961700 39.319946,69.954094 39.821266,69.946556 
	C40.203705,78.963364 40.285229,87.980118 40.415291,97.459290 
	C39.976738,96.326920 39.103191,94.740417 39.068691,93.135887 
	C38.909481,85.730553 38.983856,78.320190 38.946815,70.440475 
z"/>
<path fill="#32779F" opacity="1.000000" stroke="none" 
	d="
M30.436153,38.789177 
	C29.249880,39.136406 27.629822,39.843388 25.967970,39.961304 
	C19.889086,40.392628 13.796280,40.627747 7.274142,40.902077 
	C9.456603,40.238766 12.049891,39.227600 14.695755,39.063347 
	C19.775812,38.747978 24.885687,38.912910 30.436153,38.789177 
z"/>
<path fill="#1F6C9D" opacity="1.000000" stroke="none" 
	d="
M30.915592,78.925896 
	C31.278259,79.753044 31.945808,80.576782 31.955135,81.407890 
	C32.026772,87.791328 31.970560,94.176193 31.933641,101.074509 
	C31.565048,94.693344 31.216860,87.798294 30.940590,80.173729 
	C30.980204,79.271446 30.947897,79.098671 30.915592,78.925896 
z"/>
<path fill="#4888B0" opacity="1.000000" stroke="none" 
	d="
M11.993031,68.515533 
	C8.339904,66.645164 10.284681,63.397072 10.985289,60.156677 
	C11.506407,62.631882 11.700897,65.363289 11.993031,68.515533 
z"/>
<path fill="#2F77A2" opacity="1.000000" stroke="none" 
	d="
M169.512848,52.555344 
	C169.160324,50.102409 168.936569,47.215328 169.025299,44.167854 
	C169.439072,46.712036 169.540359,49.416615 169.512848,52.555344 
z"/>
<path fill="#4888B0" opacity="1.000000" stroke="none" 
	d="
M44.444347,105.914658 
	C44.252243,105.215111 44.073723,104.156654 44.445042,103.351883 
	C45.926231,100.141655 44.302814,99.014862 41.234657,98.276917 
	C42.769753,97.998619 44.548206,97.998619 47.054108,97.998619 
	C46.180450,100.859406 45.445541,103.265869 44.444347,105.914658 
z"/>
<path fill="#F0F8F9" opacity="1.000000" stroke="none" 
	d="
M339.765442,47.664391 
	C338.610199,48.770885 337.251251,49.633785 335.369659,50.828583 
	C335.274017,49.092377 335.208008,47.893795 335.241272,46.337505 
	C336.747620,46.460133 338.154694,46.940464 339.765442,47.664391 
z"/>
<path fill="#E9F4F6" opacity="1.000000" stroke="none" 
	d="
M232.037415,66.669327 
	C233.371872,66.270271 234.774872,66.183968 236.598724,66.148331 
	C235.968079,70.139267 234.114166,69.044670 232.037415,66.669327 
z"/>
<path fill="#F0F8F9" opacity="1.000000" stroke="none" 
	d="
M445.555969,62.625423 
	C444.872345,60.903297 444.401062,58.872974 443.880859,56.455719 
	C447.644989,57.169983 445.516479,60.112442 445.555969,62.625423 
z"/>
<path fill="#4888B0" opacity="1.000000" stroke="none" 
	d="
M11.478018,55.771156 
	C11.147694,54.792984 10.983406,53.497669 11.103939,52.058689 
	C11.473857,53.094685 11.558956,54.274349 11.478018,55.771156 
z"/>
<path fill="#E9F4F6" opacity="1.000000" stroke="none" 
	d="
M214.918701,69.874901 
	C214.717728,68.918045 214.554825,67.572968 214.715820,66.301804 
	C215.012070,67.412704 214.984421,68.449692 214.918701,69.874901 
z"/>
<path fill="#4888B0" opacity="1.000000" stroke="none" 
	d="
M38.895592,107.447098 
	C40.194233,106.930290 41.810204,106.637207 43.817883,106.230865 
	C42.544033,106.635345 40.878475,107.153084 38.895592,107.447098 
z"/>
<path fill="#F0F8F9" opacity="1.000000" stroke="none" 
	d="
M424.224487,80.408447 
	C425.174622,80.286438 426.320221,80.400352 427.747620,80.713257 
	C426.826263,80.822952 425.623108,80.733658 424.224487,80.408447 
z"/>
<path fill="#FEFEFD" opacity="1.000000" stroke="none" 
	d="
M465.807587,56.204418 
	C466.052063,56.764816 465.998535,57.263794 465.945007,57.762772 
	C465.497437,57.649189 465.049835,57.535603 464.602264,57.422012 
	C464.904694,56.995674 465.207153,56.569332 465.807587,56.204418 
z"/>
<path fill="#32779F" opacity="1.000000" stroke="none" 
	d="
M7.711162,77.426437 
	C8.555842,77.315361 9.612022,77.455902 10.839097,77.870323 
	C9.980882,77.988815 8.951771,77.833435 7.711162,77.426437 
z"/>
<path fill="#F0F8F9" opacity="1.000000" stroke="none" 
	d="
M407.116089,49.888603 
	C406.584656,49.562260 406.300842,49.075836 406.004822,48.296246 
	C406.449615,48.578224 406.906616,49.153370 407.116089,49.888603 
z"/>
<path fill="#DCEEF3" opacity="1.000000" stroke="none" 
	d="
M256.902466,46.882050 
	C256.507721,47.274487 255.986725,47.438625 255.196716,47.515083 
	C255.543884,47.169521 256.160065,46.911636 256.902466,46.882050 
z"/>
<path fill="#E9F4F6" opacity="1.000000" stroke="none" 
	d="
M225.975983,47.346954 
	C225.482788,47.578648 224.931900,47.540867 224.170593,47.314316 
	C224.612900,47.109524 225.265579,47.093502 225.975983,47.346954 
z"/>
<path fill="#F0F8F9" opacity="1.000000" stroke="none" 
	d="
M348.954865,47.178635 
	C348.489563,47.414734 347.953156,47.402828 347.199402,47.221973 
	C347.615936,47.012222 348.249847,46.971424 348.954865,47.178635 
z"/>
<path fill="#F0F8F9" opacity="1.000000" stroke="none" 
	d="
M468.031006,69.315994 
	C468.266449,70.188667 468.482788,71.497307 468.401367,73.026337 
	C468.072998,72.081802 468.042419,70.916878 468.031006,69.315994 
z"/>
<path fill="#F0F8F9" opacity="1.000000" stroke="none" 
	d="
M427.904358,46.869019 
	C427.529449,47.282932 427.022858,47.465542 426.245667,47.581711 
	C426.574310,47.222755 427.173492,46.930237 427.904358,46.869019 
z"/>
<path fill="#2F77A2" opacity="1.000000" stroke="none" 
	d="
M168.808655,36.387642 
	C168.951691,37.457485 168.864349,38.328876 168.776993,39.200264 
	C168.569366,39.190853 168.361725,39.181438 168.154099,39.172024 
	C168.098373,38.407341 168.042633,37.642658 167.979950,36.562904 
	C168.174774,36.228287 168.376526,36.208740 168.808655,36.387642 
z"/>
<path fill="#F0F8F9" opacity="1.000000" stroke="none" 
	d="
M390.963806,36.291451 
	C390.479736,36.512550 389.936005,36.472740 389.186462,36.245152 
	C389.621796,36.048428 390.262939,36.039482 390.963806,36.291451 
z"/>
<path fill="#F0F8F9" opacity="1.000000" stroke="none" 
	d="
M352.713531,47.019363 
	C353.007477,47.420536 353.017395,47.835270 353.034821,48.561111 
	C352.495758,48.692467 351.949219,48.512722 351.220642,48.100819 
	C351.502258,47.590080 351.965881,47.311504 352.713531,47.019363 
z"/>
<path fill="#F0F8F9" opacity="1.000000" stroke="none" 
	d="
M449.632690,56.218342 
	C449.919983,56.765163 449.981812,57.507267 449.988708,58.619049 
	C449.758240,58.130360 449.582733,57.271992 449.632690,56.218342 
z"/>
<path fill="#F0F8F9" opacity="1.000000" stroke="none" 
	d="
M350.037048,59.171448 
	C350.330048,59.654980 350.592773,60.472191 350.787048,61.620354 
	C350.481323,61.135910 350.244080,60.320515 350.037048,59.171448 
z"/>
<path fill="#F0F8F9" opacity="1.000000" stroke="none" 
	d="
M456.634460,47.979485 
	C456.466125,48.258617 456.023865,48.551384 455.304565,48.836277 
	C455.471863,48.549980 455.916168,48.271549 456.634460,47.979485 
z"/>
<path fill="#F0F8F9" opacity="1.000000" stroke="none" 
	d="
M332.206909,80.510406 
	C332.475433,80.280663 332.899261,80.220947 333.636444,80.243607 
	C333.420593,80.444130 332.891418,80.562286 332.206909,80.510406 
z"/>
<path fill="#F0F8F9" opacity="1.000000" stroke="none" 
	d="
M425.820862,73.658661 
	C425.452179,73.736168 424.921204,73.589058 424.246002,73.195259 
	C424.620697,73.110397 425.139618,73.272217 425.820862,73.658661 
z"/>
<path fill="#F0F8F9" opacity="1.000000" stroke="none" 
	d="
M433.921173,74.061020 
	C433.691681,74.333214 433.166626,74.575439 432.346130,74.750015 
	C432.575653,74.465263 433.100616,74.248154 433.921173,74.061020 
z"/>
<path fill="#F0F8F9" opacity="1.000000" stroke="none" 
	d="
M421.018890,69.643333 
	C420.723114,69.480110 420.407928,69.035912 420.101288,68.303452 
	C420.406342,68.464241 420.702911,68.913300 421.018890,69.643333 
z"/>
<path fill="#32779F" opacity="1.000000" stroke="none" 
	d="
M3.591200,43.991020 
	C3.707639,44.439152 3.549030,45.041882 3.096768,45.784740 
	C2.974128,45.331787 3.145141,44.738705 3.591200,43.991020 
z"/>
<path fill="#4888B0" opacity="1.000000" stroke="none" 
	d="
M35.978882,106.495499 
	C36.418182,106.345589 37.029957,106.468819 37.820671,106.864418 
	C37.383522,107.014061 36.767437,106.891342 35.978882,106.495499 
z"/>
<path fill="#F0F8F9" opacity="1.000000" stroke="none" 
	d="
M408.366760,58.828011 
	C408.129852,58.543228 408.087036,58.105721 408.115479,57.344563 
	C408.311462,57.572372 408.436188,58.123829 408.366760,58.828011 
z"/>
<path fill="#F0F8F9" opacity="1.000000" stroke="none" 
	d="
M413.590637,57.215027 
	C413.702820,57.587383 413.597870,58.145859 413.256470,58.875469 
	C413.137848,58.498119 413.255676,57.949635 413.590637,57.215027 
z"/>
<path fill="#F0F8F9" opacity="1.000000" stroke="none" 
	d="
M412.455017,65.226364 
	C412.703949,65.483711 412.789764,65.905884 412.809814,66.647507 
	C412.593353,66.441711 412.442627,65.916451 412.455017,65.226364 
z"/>
<path fill="#1F6C9D" opacity="1.000000" stroke="none" 
	d="
M33.751511,104.492569 
	C34.008919,104.379433 34.354038,104.546776 34.775127,105.006516 
	C34.513805,105.123627 34.176514,104.948341 33.751511,104.492569 
z"/>
<path fill="#1F6C9D" opacity="1.000000" stroke="none" 
	d="
M34.814972,105.434105 
	C35.050400,105.320854 35.384499,105.480530 35.832722,105.903069 
	C35.602444,106.012962 35.258041,105.860001 34.814972,105.434105 
z"/>
<path fill="#F0F8F9" opacity="1.000000" stroke="none" 
	d="
M423.859436,47.655243 
	C423.835938,47.883415 423.692017,47.974518 423.292755,48.071255 
	C423.271271,47.890652 423.505157,47.704414 423.859436,47.655243 
z"/>
<path fill="#F0F8F9" opacity="1.000000" stroke="none" 
	d="
M349.116821,57.029205 
	C349.323883,57.012138 349.568176,57.236118 349.804810,57.718704 
	C349.489410,57.826527 349.275085,57.590839 349.116821,57.029205 
z"/>
<path fill="#1F6C9D" opacity="1.000000" stroke="none" 
	d="
M31.977627,102.264221 
	C32.221474,102.219376 32.488274,102.463890 32.803600,102.983994 
	C32.568279,103.024246 32.284428,102.788910 31.977627,102.264221 
z"/>
<path fill="#F0F8F9" opacity="1.000000" stroke="none" 
	d="
M466.852966,74.052422 
	C466.973938,74.327873 466.786591,74.536118 466.270081,74.609589 
	C466.198517,74.343140 466.399750,74.179939 466.852966,74.052422 
z"/>
<path fill="#F0F8F9" opacity="1.000000" stroke="none" 
	d="
M458.775299,74.425880 
	C458.941803,74.582672 458.466766,74.668678 458.466766,74.668678 
	C458.466766,74.668678 458.017578,74.491646 457.869202,74.300171 
	C458.036530,74.053238 458.332520,74.106705 458.775299,74.425880 
z"/>
<path fill="#F0F8F9" opacity="1.000000" stroke="none" 
	d="
M449.744263,74.195572 
	C449.892120,74.402687 449.789398,74.805885 449.438446,75.408081 
	C449.291382,75.201950 449.392517,74.796806 449.744263,74.195572 
z"/>
<path fill="#7CACC1" opacity="1.000000" stroke="none" 
	d="
M327.457794,36.211967 
	C327.355072,36.033806 327.252380,35.855648 327.090637,35.375221 
	C327.213287,35.061817 327.395050,35.050686 327.844666,35.094803 
	C328.112549,35.150059 328.152771,35.639050 328.000183,35.925224 
	C327.847595,36.211395 327.457794,36.211967 327.457794,36.211967 
z"/>
<path fill="#1F6C9D" opacity="1.000000" stroke="none" 
	d="
M32.789085,103.425934 
	C33.047184,103.340218 33.373428,103.539825 33.748394,104.036331 
	C33.483818,104.125900 33.170525,103.918579 32.789085,103.425934 
z"/>
<path fill="#F0F8F9" opacity="1.000000" stroke="none" 
	d="
M456.088440,80.312248 
	C456.011749,80.166275 456.507843,80.119629 456.737915,80.215210 
	C456.967957,80.310783 456.594238,80.599838 456.594238,80.599838 
	C456.594238,80.599838 456.165100,80.458221 456.088440,80.312248 
z"/>
<path fill="#32779F" opacity="1.000000" stroke="none" 
	d="
M30.888702,78.932434 
	C30.947897,79.098671 30.980204,79.271446 31.009464,79.707657 
	C30.817419,79.786201 30.718800,79.561638 30.758587,79.116127 
	C30.806616,78.934860 30.861811,78.938980 30.888702,78.932434 
z"/>
<path fill="#277AB1" opacity="1.000000" stroke="none" 
	d="
M169.238632,79.581543 
	C169.063919,79.438705 169.078629,79.241119 169.123764,78.745300 
	C169.282257,78.675919 169.436905,78.895042 169.525940,79.138184 
	C169.563904,79.241882 169.464844,79.395744 169.238632,79.581543 
z"/>
<path fill="#F0F8F9" opacity="1.000000" stroke="none" 
	d="
M422.196777,79.502899 
	C422.381622,79.213196 422.692841,79.269318 423.111511,79.700928 
	C422.922150,79.943611 422.623535,79.867714 422.196777,79.502899 
z"/>
<path fill="#F0F8F9" opacity="1.000000" stroke="none" 
	d="
M302.751953,47.083214 
	C302.815033,47.292843 302.680756,47.582787 302.280823,47.840424 
	C302.123657,47.533554 302.303436,47.318691 302.751953,47.083214 
z"/>
<path fill="#32779F" opacity="1.000000" stroke="none" 
	d="
M6.629975,40.872364 
	C6.697122,41.116844 6.488988,41.418491 5.996671,41.759789 
	C5.926556,41.509468 6.140625,41.219501 6.629975,40.872364 
z"/>
<path fill="#32779F" opacity="1.000000" stroke="none" 
	d="
M5.530369,41.788376 
	C5.626280,42.036621 5.454693,42.367657 4.993103,42.751072 
	C4.889690,42.492691 5.076280,42.181927 5.530369,41.788376 
z"/>
<path fill="#32779F" opacity="1.000000" stroke="none" 
	d="
M4.531390,42.814419 
	C4.645395,43.047966 4.497894,43.382820 4.081650,43.815186 
	C3.965233,43.580372 4.117558,43.248051 4.531390,42.814419 
z"/>
<path fill="#F0F8F9" opacity="1.000000" stroke="none" 
	d="
M369.115479,80.447609 
	C369.031555,80.321396 369.502533,80.237030 369.728455,80.315613 
	C369.954407,80.394188 369.611847,80.666977 369.611847,80.666977 
	C369.611847,80.666977 369.199432,80.573822 369.115479,80.447609 
z"/>
<path fill="#F0F8F9" opacity="1.000000" stroke="none" 
	d="
M468.144043,80.406677 
	C468.181091,80.204437 468.333557,80.129318 468.740845,80.062538 
	C468.750244,80.225182 468.504822,80.379486 468.144043,80.406677 
z"/>
<path fill="#F0F8F9" opacity="1.000000" stroke="none" 
	d="
M339.135498,55.921585 
	C338.986267,55.629597 339.176819,55.386021 339.732422,55.257175 
	C339.837250,55.548817 339.629852,55.748184 339.135498,55.921585 
z"/>
<path fill="#F0F8F9" opacity="1.000000" stroke="none" 
	d="
M414.655945,55.124065 
	C414.760071,55.301411 414.657013,55.631699 414.318665,56.090790 
	C414.205170,55.905396 414.326935,55.591202 414.655945,55.124065 
z"/>
<path fill="#F0F8F9" opacity="1.000000" stroke="none" 
	d="
M465.208252,67.525040 
	C465.385834,67.204849 465.700500,67.247780 466.132446,67.689377 
	C465.949493,67.941139 465.648010,67.874512 465.208252,67.525040 
z"/>
<path fill="#F0F8F9" opacity="1.000000" stroke="none" 
	d="
M460.253784,66.504349 
	C460.417267,66.342438 460.792267,66.363770 461.368103,66.595680 
	C461.201080,66.766701 460.833221,66.727150 460.253784,66.504349 
z"/>
<path fill="#F0F8F9" opacity="1.000000" stroke="none" 
	d="
M443.134460,66.488983 
	C443.040405,66.370918 443.498901,66.215622 443.731384,66.282898 
	C443.963898,66.350182 443.647675,66.653168 443.647675,66.653168 
	C443.647675,66.653168 443.228546,66.607040 443.134460,66.488983 
z"/>
<path fill="#F0F8F9" opacity="1.000000" stroke="none" 
	d="
M419.988525,66.974594 
	C419.954590,67.088821 419.614319,66.828407 419.614319,66.828407 
	C419.614319,66.828407 419.775360,66.459511 419.907532,66.541107 
	C420.039734,66.622696 420.022430,66.860374 419.988525,66.974594 
z"/>
<path fill="#2878AC" opacity="1.000000" stroke="none" 
	d="
M365.469666,56.416435 
	C365.437073,56.391834 365.214264,56.502594 365.329956,56.552788 
	C365.445679,56.602978 365.502228,56.441040 365.469666,56.416435 
z"/>
<path fill="#F0F8F9" opacity="1.000000" stroke="none" 
	d="
M456.225800,65.402267 
	C456.406982,65.252159 456.786774,65.313896 457.359924,65.599518 
	C457.177002,65.753632 456.800720,65.683868 456.225800,65.402267 
z"/>
<path fill="#F0F8F9" opacity="1.000000" stroke="none" 
	d="
M407.402100,64.760361 
	C407.229645,64.576256 407.268036,64.175949 407.535278,63.568474 
	C407.713715,63.755589 407.663330,64.149872 407.402100,64.760361 
z"/>
<path fill="#F0F8F9" opacity="1.000000" stroke="none" 
	d="
M412.572968,62.111393 
	C412.701660,62.026043 412.807068,62.503487 412.719116,62.731590 
	C412.317230,62.754585 412.254944,62.500267 412.572968,62.111393 
z"/>
<path fill="#F0F8F9" opacity="1.000000" stroke="none" 
	d="
M335.747620,61.722656 
	C335.438324,61.624332 335.438751,61.385311 335.806458,61.027180 
	C335.990173,61.143818 335.951385,61.368450 335.747620,61.722656 
z"/>
<path fill="#E9F4F6" opacity="1.000000" stroke="none" 
	d="
M242.682129,57.210426 
	C242.849869,57.405518 242.783279,57.802589 242.485291,58.405502 
	C242.318527,58.211697 242.383148,57.812050 242.682129,57.210426 
z"/>
<path fill="#E9F4F6" opacity="1.000000" stroke="none" 
	d="
M217.855347,72.513336 
	C217.979340,72.687729 217.512283,72.728981 217.512283,72.728981 
	C217.512283,72.728981 217.135208,72.450287 217.044434,72.233948 
	C217.253113,72.027390 217.512344,72.134499 217.855347,72.513336 
z"/>
<path fill="#F0F8F9" opacity="1.000000" stroke="none" 
	d="
M415.170898,73.937912 
	C415.389954,73.907623 415.659088,74.164268 415.998718,74.698639 
	C415.786499,74.725861 415.503754,74.475349 415.170898,73.937912 
z"/>
<path fill="#F0F8F9" opacity="1.000000" stroke="none" 
	d="
M455.828308,73.480064 
	C455.957336,73.642128 455.512024,73.671074 455.512024,73.671074 
	C455.512024,73.671074 455.144592,73.417755 455.041107,73.219765 
	C455.225372,73.033524 455.479248,73.132271 455.828308,73.480064 
z"/>
<path fill="#F0F8F9" opacity="1.000000" stroke="none" 
	d="
M436.095886,73.152588 
	C436.099731,73.371765 435.835266,73.611069 435.295227,73.846252 
	C435.288940,73.619003 435.558289,73.395866 436.095886,73.152588 
z"/>
<path fill="#F0F8F9" opacity="1.000000" stroke="none" 
	d="
M422.872864,48.077618 
	C423.012665,48.378326 422.817139,48.590145 422.267395,48.658443 
	C422.184784,48.380768 422.392914,48.205368 422.872864,48.077618 
z"/>
<path fill="#E9F4F6" opacity="1.000000" stroke="none" 
	d="
M226.178665,73.161713 
	C226.150909,73.379662 225.858566,73.576965 225.298431,73.723251 
	C225.325134,73.495163 225.619598,73.318115 226.178665,73.161713 
z"/>
<path fill="#F0F8F9" opacity="1.000000" stroke="none" 
	d="
M423.899994,72.696991 
	C423.718201,72.779091 423.405640,72.650581 423.000305,72.276604 
	C423.251160,72.076096 423.538422,72.227837 423.899994,72.696991 
z"/>
<path fill="#F0F8F9" opacity="1.000000" stroke="none" 
	d="
M414.095337,72.102112 
	C414.401154,71.942833 414.645630,72.145302 414.783630,72.729256 
	C414.492035,72.842178 414.277649,72.626549 414.095337,72.102112 
z"/>
<path fill="#F0F8F9" opacity="1.000000" stroke="none" 
	d="
M427.784485,74.463646 
	C427.633606,74.595245 427.314423,74.559700 426.847046,74.320305 
	C427.027283,74.061058 427.333038,74.121071 427.784485,74.463646 
z"/>
<path fill="#F0F8F9" opacity="1.000000" stroke="none" 
	d="
M471.799133,48.494297 
	C471.957886,48.668678 471.466309,48.713638 471.466309,48.713638 
	C471.466309,48.713638 471.017822,48.507362 470.878174,48.303032 
	C471.067566,48.056812 471.368164,48.130554 471.799133,48.494297 
z"/>
<path fill="#F0F8F9" opacity="1.000000" stroke="none" 
	d="
M438.903137,71.135216 
	C438.943359,71.335602 438.730927,71.608109 438.260498,71.944603 
	C438.218536,71.741501 438.434479,71.474419 438.903137,71.135216 
z"/>
<path fill="#F0F8F9" opacity="1.000000" stroke="none" 
	d="
M450.648376,53.205536 
	C450.788849,53.392914 450.707001,53.767460 450.393951,54.324959 
	C450.250519,54.136177 450.338318,53.764442 450.648376,53.205536 
z"/>
<path fill="#F0F8F9" opacity="1.000000" stroke="none" 
	d="
M421.889221,70.865608 
	C421.691284,70.903671 421.418427,70.702187 421.107666,70.238647 
	C421.317963,70.193085 421.566101,70.409569 421.889221,70.865608 
z"/>
<path fill="#F0F8F9" opacity="1.000000" stroke="none" 
	d="
M413.142914,69.891556 
	C413.354004,69.898743 413.573212,70.166428 413.772644,70.702438 
	C413.552277,70.697853 413.351624,70.424950 413.142914,69.891556 
z"/>
<path fill="#E9F4F6" opacity="1.000000" stroke="none" 
	d="
M242.222412,69.714104 
	C242.463699,69.732719 242.688232,70.057465 242.900330,70.685814 
	C242.660492,70.666359 242.433075,70.343300 242.222412,69.714104 
z"/>
<path fill="#FDFEFD" opacity="1.000000" stroke="none" 
	d="
M490.224426,79.896881 
	C489.914825,77.348526 489.989441,74.759529 490.090302,71.744278 
	C490.116547,71.318039 490.153412,71.166954 490.420013,71.063782 
	C490.932312,70.787521 491.061035,70.550842 491.072845,70.250572 
	C491.314270,69.946289 491.555725,69.641998 492.397522,69.173805 
	C493.952515,69.027336 494.907135,69.044769 495.861725,69.062195 
	C495.861725,69.062202 495.934784,69.027748 495.956360,69.487183 
	C495.985260,71.631012 495.992615,73.315407 496.000000,74.999908 
	C496.000000,75.000000 496.000000,75.000305 496.000000,75.000305 
	C494.922729,74.790588 493.845459,74.580879 492.876923,74.392326 
	C492.077728,76.317459 491.343201,78.086845 490.224426,79.896881 
z"/>
<path fill="#FDFEFD" opacity="1.000000" stroke="none" 
	d="
M500.343445,82.033997 
	C498.700317,79.890503 497.400635,77.781013 496.050476,75.335907 
	C496.000000,75.000305 496.000000,75.000000 496.358398,75.003456 
	C498.086487,75.354973 499.456207,75.703026 500.825897,76.051079 
	C500.825897,76.051079 501.153259,76.100761 501.436279,76.411957 
	C502.135071,77.168343 502.550873,77.613541 502.966675,78.058731 
	C502.966675,78.058739 503.001495,78.008064 503.018188,78.283997 
	C503.320648,78.765877 503.606445,78.971825 503.892212,79.177773 
	C503.892212,79.177773 503.858063,79.176079 503.851379,79.192490 
	C504.056610,79.511185 504.268585,79.813461 504.737244,80.241196 
	C504.995941,81.335335 504.997955,82.304016 505.000000,83.636040 
	C503.562286,83.355591 502.124573,82.711800 500.343445,82.033997 
z"/>
<path fill="#F9FBFA" opacity="1.000000" stroke="none" 
	d="
M500.804810,75.704895 
	C499.456207,75.703026 498.086487,75.354973 496.358398,75.003357 
	C495.992615,73.315407 495.985260,71.631012 495.965881,69.526443 
	C497.563782,71.190414 499.173767,73.274559 500.804810,75.704895 
z"/>
<path fill="#F9FBFA" opacity="1.000000" stroke="none" 
	d="
M495.721802,68.800682 
	C494.907135,69.044769 493.952515,69.027336 492.640320,69.010933 
	C493.382446,68.854370 494.482178,68.696770 495.721802,68.800682 
z"/>
<path fill="#32779F" opacity="1.000000" stroke="none" 
	d="
M502.940735,77.716141 
	C502.550873,77.613541 502.135071,77.168343 501.600281,76.434250 
	C501.959137,76.554749 502.436951,76.964157 502.940735,77.716141 
z"/>
<path fill="#32779F" opacity="1.000000" stroke="none" 
	d="
M508.014954,75.325638 
	C508.377563,75.436012 508.767242,75.858124 509.212311,76.572021 
	C508.859131,76.454987 508.450592,76.046181 508.014954,75.325638 
z"/>
<path fill="#3D81AC" opacity="1.000000" stroke="none" 
	d="
M501.038391,66.249733 
	C501.420380,66.348793 501.812683,66.770042 502.267334,67.480278 
	C501.902679,67.370148 501.475677,66.971039 501.038391,66.249733 
z"/>
<path fill="#3D81AC" opacity="1.000000" stroke="none" 
	d="
M502.071838,57.351013 
	C502.093170,57.802925 501.800964,58.277367 501.247437,58.864323 
	C501.243530,58.442410 501.500885,57.907978 502.071838,57.351013 
z"/>
<path fill="#32779F" opacity="1.000000" stroke="none" 
	d="
M507.122040,74.089478 
	C507.322296,74.052910 507.596436,74.269287 507.927826,74.747665 
	C507.722015,74.787247 507.458954,74.564835 507.122040,74.089478 
z"/>
<path fill="#32779F" opacity="1.000000" stroke="none" 
	d="
M503.830261,78.917175 
	C503.606445,78.971825 503.320648,78.765877 502.988037,78.289917 
	C503.216888,78.232124 503.492615,78.444344 503.830261,78.917175 
z"/>
<path fill="#3D81AC" opacity="1.000000" stroke="none" 
	d="
M504.971405,54.247326 
	C505.076263,54.487743 504.907013,54.789875 504.487823,55.184380 
	C504.391052,54.954178 504.544159,54.631611 504.971405,54.247326 
z"/>
<path fill="#3D81AC" opacity="1.000000" stroke="none" 
	d="
M502.291199,68.003548 
	C502.533447,67.928284 502.819946,68.144142 503.204712,68.619568 
	C502.980499,68.684319 502.657990,68.489494 502.291199,68.003548 
z"/>
<path fill="#3D81AC" opacity="1.000000" stroke="none" 
	d="
M504.003876,55.283653 
	C504.121521,55.532661 503.959564,55.832920 503.553833,56.228718 
	C503.448120,55.994476 503.586182,55.664696 504.003876,55.283653 
z"/>
<path fill="#3D81AC" opacity="1.000000" stroke="none" 
	d="
M499.323120,63.975395 
	C499.574249,63.909058 499.851044,64.132736 500.201538,64.622391 
	C499.966400,64.680725 499.657593,64.473068 499.323120,63.975395 
z"/>
<path fill="#3D81AC" opacity="1.000000" stroke="none" 
	d="
M498.785889,63.120102 
	C498.937683,63.003147 499.255127,63.257633 499.298370,63.455715 
	C499.105774,63.514881 498.869965,63.375965 498.785889,63.120102 
z"/>
<path fill="#3D81AC" opacity="1.000000" stroke="none" 
	d="
M503.042816,56.331230 
	C503.162811,56.593006 502.996307,56.880035 502.592712,57.258781 
	C502.489166,57.019161 502.622742,56.687820 503.042816,56.331230 
z"/>
<path fill="#BFDBE3" opacity="1.000000" stroke="none" 
	d="
M490.868103,70.311630 
	C491.061035,70.550842 490.932312,70.787521 490.491608,71.033409 
	C490.276764,70.790649 490.399017,70.546135 490.868103,70.311630 
z"/>
<path fill="#3D81AC" opacity="1.000000" stroke="none" 
	d="
M506.027527,53.194794 
	C506.110138,53.432766 505.908356,53.741558 505.441986,54.146469 
	C505.365967,53.916931 505.554535,53.591274 506.027527,53.194794 
z"/>
<path fill="#2A7AAF" opacity="1.000000" stroke="none" 
	d="
M292.166473,54.000999 
	C292.107300,61.026527 292.048126,68.052055 291.990417,75.907906 
	C292.045746,77.492172 292.099609,78.246124 292.153442,79.000061 
	C291.910034,79.307610 291.666656,79.615158 290.760986,80.039200 
	C288.088409,80.056259 286.078125,79.956833 284.067871,79.857407 
	C284.035950,71.878426 284.004028,63.899452 283.969849,55.031258 
	C283.906586,52.094109 283.845581,50.046173 283.784607,47.998241 
	C283.985901,43.800034 284.187195,39.601826 285.126007,35.161194 
	C288.742828,35.079575 292.570831,33.774246 292.172058,39.000946 
	C292.112213,40.719231 292.052338,42.437515 291.995239,45.020592 
	C292.054169,48.590591 292.110321,51.295795 292.166473,54.000999 
z"/>
<path fill="#FDFEFD" opacity="1.000000" stroke="none" 
	d="
M292.545746,54.009811 
	C292.110321,51.295795 292.054169,48.590591 292.085938,45.442112 
	C293.682404,45.794559 295.190948,46.590286 296.845520,48.062195 
	C297.235626,50.139992 297.479736,51.541599 297.723877,52.943207 
	C298.904877,53.362930 300.085876,53.782654 301.750549,54.439392 
	C302.399872,54.842216 302.597839,54.947117 302.828064,54.991108 
	C302.938538,55.744976 303.049042,56.498844 303.055878,57.626282 
	C299.609802,56.672779 296.267426,55.345699 292.545746,54.009811 
z"/>
<path fill="#FDFEFD" opacity="1.000000" stroke="none" 
	d="
M292.549561,38.986145 
	C292.570831,33.774246 288.742828,35.079575 285.431213,34.854797 
	C284.810059,31.724873 287.043365,31.612679 288.927460,32.099113 
	C290.980194,32.629086 292.954865,33.748493 294.663635,35.015434 
	C294.920990,35.206249 293.546631,37.597797 292.549561,38.986145 
z"/>
<path fill="#FDFEFD" opacity="1.000000" stroke="none" 
	d="
M283.399597,48.016884 
	C283.845581,50.046173 283.906586,52.094109 283.871643,54.571999 
	C280.150360,53.508827 279.852264,50.780434 283.399597,48.016884 
z"/>
<path fill="#FDFEFD" opacity="1.000000" stroke="none" 
	d="
M276.333160,67.925598 
	C275.883301,65.952675 275.813538,63.904579 275.846802,61.427757 
	C279.552094,62.909782 278.343750,65.356583 276.333160,67.925598 
z"/>
<path fill="#FDFEFD" opacity="1.000000" stroke="none" 
	d="
M289.002869,81.086159 
	C287.742401,84.040863 286.015869,83.469009 284.484009,81.372810 
	C286.222931,81.039482 287.612885,81.062820 289.002869,81.086159 
z"/>
<path fill="#FDFEFD" opacity="1.000000" stroke="none" 
	d="
M292.508209,78.990540 
	C292.099609,78.246124 292.045746,77.492172 292.080750,76.368729 
	C293.055542,76.465111 293.941467,76.930977 294.827423,77.396835 
	C294.172607,77.924896 293.517792,78.452957 292.508209,78.990540 
z"/>
<path fill="#F0F8F9" opacity="1.000000" stroke="none" 
	d="
M289.275787,81.052612 
	C287.612885,81.062820 286.222931,81.039482 284.415863,81.016449 
	C284.004486,80.823166 284.010162,80.629578 284.041840,80.146706 
	C286.078125,79.956833 288.088409,80.056259 290.525696,80.218788 
	C290.484680,80.527618 290.016693,80.773346 289.275787,81.052612 
z"/>
<path fill="#FDFEFD" opacity="1.000000" stroke="none" 
	d="
M303.075897,72.939919 
	C303.632996,73.398224 303.843353,73.908737 304.056183,74.699203 
	C303.212402,74.711769 302.366180,74.444397 301.519928,74.177017 
	C301.923004,73.782043 302.326080,73.387085 303.075897,72.939919 
z"/>
<path fill="#F0F8F9" opacity="1.000000" stroke="none" 
	d="
M297.812134,52.546082 
	C297.479736,51.541599 297.235626,50.139992 296.995148,48.363594 
	C297.199829,48.001278 297.400879,48.013752 297.901947,48.061630 
	C298.101440,49.447674 298.000916,50.798313 297.812134,52.546082 
z"/>
<path fill="#F9FDFD" opacity="1.000000" stroke="none" 
	d="
M382.933960,74.163330 
	C380.166168,74.161324 377.873077,74.161324 375.228699,74.161324 
	C375.228699,63.402573 375.228699,53.049961 375.228699,42.281368 
	C379.716003,42.281368 384.231598,41.689304 388.528656,42.406563 
	C397.059235,43.830471 401.710052,51.068237 400.916016,60.537983 
	C400.252716,68.448830 394.376587,73.782860 385.897644,74.157845 
	C385.069489,74.194458 384.238373,74.164429 382.933960,74.163330 
z"/>
<path fill="#F3F9FA" opacity="1.000000" stroke="none" 
	d="
M264.018982,72.174026 
	C257.146576,75.130089 251.740967,73.061813 250.173935,67.226379 
	C248.746719,61.911633 250.694595,56.740852 255.005890,54.864475 
	C259.198151,53.039898 262.909088,54.200615 265.779602,57.502655 
	C269.130280,61.357029 268.406799,67.265366 264.018982,72.174026 
z"/>
<path fill="#EFF8F8" opacity="1.000000" stroke="none" 
	d="
M221.138641,53.754639 
	C226.127670,53.707451 228.841934,55.984154 230.256622,60.767181 
	C224.357635,60.767181 218.900970,60.767181 213.014297,60.767181 
	C214.108612,56.290791 216.750732,54.304947 221.138641,53.754639 
z"/>
<path fill="#1F6FA1" opacity="1.000000" stroke="none" 
	d="
M327.403870,36.648232 
	C327.457794,36.211967 327.847595,36.211395 328.038086,36.167595 
	C328.486206,37.868439 328.957581,39.611908 328.967224,41.357918 
	C329.036285,53.892761 329.011536,66.428123 329.028564,79.424118 
	C328.878815,79.930367 328.717072,79.975822 328.271606,79.747070 
	C327.912231,79.184036 327.736786,78.981773 327.409210,78.424088 
	C327.241425,74.988167 327.126007,71.994240 327.124817,68.553665 
	C327.159668,64.737968 327.080231,61.368908 327.115295,57.550808 
	C327.154175,53.401180 327.078583,49.700588 327.002960,46.000000 
	C327.118622,43.028164 327.234283,40.056328 327.403870,36.648232 
z"/>
<path fill="#FDFEFD" opacity="1.000000" stroke="none" 
	d="
M356.611145,80.257828 
	C356.452515,81.212387 355.899445,82.073029 355.346344,82.933670 
	C354.573792,82.303146 353.801239,81.672615 353.011810,80.690460 
	C354.068848,80.280533 355.142731,80.222229 356.611145,80.257828 
z"/>
<path fill="#FDFEFD" opacity="1.000000" stroke="none" 
	d="
M357.683472,54.460732 
	C358.618805,54.381489 359.623596,54.630585 360.628387,54.879684 
	C360.240204,55.603130 359.852020,56.326572 359.099670,57.182915 
	C358.735535,57.315815 358.769226,57.290436 358.791443,57.033070 
	C358.749023,56.441002 358.567413,56.191479 358.268829,56.027138 
	C358.096893,55.614449 357.924927,55.201759 357.683472,54.460732 
z"/>
<path fill="#F0F8F9" opacity="1.000000" stroke="none" 
	d="
M359.109100,66.436234 
	C359.351105,67.510223 359.506287,68.988869 359.431763,70.713684 
	C359.142120,69.586868 359.082184,68.213882 359.109100,66.436234 
z"/>
<path fill="#FDFEFD" opacity="1.000000" stroke="none" 
	d="
M354.950134,50.445381 
	C355.395630,49.998283 355.898132,49.771416 356.400604,49.544540 
	C356.356537,49.967598 356.312469,50.390659 356.015961,50.965202 
	C355.433167,51.097538 355.181030,50.947178 354.950134,50.445381 
z"/>
<path fill="#F0F8F9" opacity="1.000000" stroke="none" 
	d="
M358.227478,56.271301 
	C358.567413,56.191479 358.749023,56.441002 358.785522,57.014370 
	C358.391907,57.142811 358.201447,56.896954 358.227478,56.271301 
z"/>
<path fill="#E5F2F6" opacity="1.000000" stroke="none" 
	d="
M419.608459,60.341084 
	C420.991486,54.844742 424.489166,52.672115 429.582855,52.865360 
	C434.742493,53.061111 437.714142,55.845058 439.104156,62.166843 
	C432.229248,61.652767 425.888824,61.178658 419.608459,60.341084 
z"/>
<path fill="#FDFEFD" opacity="1.000000" stroke="none" 
	d="
M327.010590,69.000305 
	C327.126007,71.994240 327.241425,74.988167 327.250793,78.666153 
	C327.107452,79.539162 327.070160,79.728127 327.032867,79.917084 
	C325.575378,80.373383 324.117889,80.829666 322.327087,80.784546 
	C321.973206,79.807442 321.952606,79.331734 321.932007,78.856033 
	C321.882233,78.291443 321.832458,77.726860 321.795227,76.569763 
	C321.573853,75.656410 321.339905,75.335564 321.105957,75.014709 
	C320.356354,74.382408 319.606750,73.750107 318.309998,73.120529 
	C317.448273,73.212463 317.206238,73.396889 317.036774,73.676544 
	C316.261597,73.747337 315.486420,73.818130 314.217163,73.610909 
	C313.519562,73.143578 313.279846,73.032211 313.003937,72.998795 
	C312.642548,72.607231 312.281189,72.215668 311.947693,71.085327 
	C311.741516,67.583092 311.507385,64.819641 311.273315,62.056198 
	C311.231567,59.977051 311.189819,57.897903 311.394470,55.336441 
	C311.786804,54.753307 311.891022,54.619888 311.953522,54.453873 
	C314.491760,54.265644 317.030029,54.077412 319.978851,53.858738 
	C319.978851,52.070229 319.978851,50.504486 319.927307,48.500275 
	C321.998962,47.378162 324.122162,46.694519 326.624146,46.005440 
	C327.078583,49.700588 327.154175,53.401180 326.746094,57.543297 
	C322.492462,54.383980 319.190094,59.352760 315.486176,58.305218 
	C314.965973,60.777214 314.012909,63.052559 314.169525,65.248772 
	C314.303558,67.128250 315.254242,69.616402 316.682831,70.546478 
	C318.073059,71.451546 320.561066,70.932732 322.506683,70.639145 
	C324.055145,70.405495 325.512695,69.569107 327.010590,69.000305 
z"/>
<path fill="#FDFEFD" opacity="1.000000" stroke="none" 
	d="
M310.954773,40.474991 
	C311.391327,40.054771 312.080811,39.868397 312.330963,40.119568 
	C314.588379,42.386059 316.768799,44.729240 318.986389,47.421196 
	C316.942810,47.824139 314.884674,47.855816 312.336914,47.638302 
	C311.731506,47.220406 311.577087,47.102043 311.384064,47.034019 
	C311.257385,44.993267 311.130676,42.952511 310.954773,40.474991 
z"/>
<path fill="#F0F8F9" opacity="1.000000" stroke="none" 
	d="
M311.172668,62.481987 
	C311.507385,64.819641 311.741516,67.583092 311.937561,70.799507 
	C311.623657,68.470917 311.347839,65.689346 311.172668,62.481987 
z"/>
<path fill="#F0F8F9" opacity="1.000000" stroke="none" 
	d="
M321.604919,78.947990 
	C321.952606,79.331734 321.973206,79.807442 321.994446,80.640350 
	C321.081451,80.962730 320.167786,80.927895 318.798981,80.811081 
	C319.321838,80.166054 320.299866,79.603004 321.604919,78.947990 
z"/>
<path fill="#F0F8F9" opacity="1.000000" stroke="none" 
	d="
M321.103271,75.323677 
	C321.339905,75.335564 321.573853,75.656410 321.811462,76.286331 
	C321.576935,76.274483 321.338776,75.953560 321.103271,75.323677 
z"/>
<path fill="#F0F8F9" opacity="1.000000" stroke="none" 
	d="
M311.338074,47.230988 
	C311.577087,47.102043 311.731506,47.220406 311.910400,47.522831 
	C311.973480,47.656551 311.573730,47.718090 311.573730,47.718090 
	C311.573730,47.718090 311.292084,47.427959 311.338074,47.230988 
z"/>
<path fill="#F0F8F9" opacity="1.000000" stroke="none" 
	d="
M311.775513,54.400208 
	C311.891022,54.619888 311.786804,54.753307 311.525024,54.909512 
	C311.238312,54.687504 311.301117,54.481388 311.775513,54.400208 
z"/>
<path fill="#F0F8F9" opacity="1.000000" stroke="none" 
	d="
M317.283051,73.708488 
	C317.206238,73.396889 317.448273,73.212463 317.995422,73.104271 
	C318.116882,73.433586 317.884003,73.651970 317.283051,73.708488 
z"/>
<path fill="#F0F8F9" opacity="1.000000" stroke="none" 
	d="
M313.078491,73.213341 
	C313.279846,73.032211 313.519562,73.143578 313.841644,73.494858 
	C313.960236,73.656822 313.509369,73.709045 313.509369,73.709045 
	C313.509369,73.709045 313.153046,73.427887 313.078491,73.213341 
z"/>
<path fill="#F0F8F9" opacity="1.000000" stroke="none" 
	d="
M302.832397,54.767578 
	C302.597839,54.947117 302.399872,54.842216 302.139252,54.535294 
	C302.356354,54.191242 302.620483,54.241196 302.832397,54.767578 
z"/>
<path fill="#FDFEFD" opacity="1.000000" stroke="none" 
	d="
M486.064392,81.397171 
	C486.740540,81.039795 487.477600,81.012543 488.582581,80.976212 
	C488.946869,81.581375 488.943207,82.195595 488.939575,82.809830 
	C488.001495,82.448982 487.063446,82.088135 486.064392,81.397171 
z"/>
<path fill="#7CACC1" opacity="1.000000" stroke="none" 
	d="
M327.293945,79.940819 
	C327.070160,79.728127 327.107452,79.539162 327.303162,79.108139 
	C327.736786,78.981773 327.912231,79.184036 328.029968,79.675476 
	C327.899719,79.906906 327.727356,79.935730 327.293945,79.940819 
z"/>
<path fill="#FEFEFD" opacity="1.000000" stroke="none" 
	d="
M327.124817,68.553665 
	C325.512695,69.569107 324.055145,70.405495 322.506683,70.639145 
	C320.561066,70.932732 318.073059,71.451546 316.682831,70.546478 
	C315.254242,69.616402 314.303558,67.128250 314.169525,65.248772 
	C314.012909,63.052559 314.965973,60.777214 315.486176,58.305218 
	C319.190094,59.352760 322.492462,54.383980 326.631592,57.992336 
	C327.080231,61.368908 327.159668,64.737968 327.124817,68.553665 
z"/>
</svg>